<?xml version="1.0" encoding="UTF-8"?>
<svg version="1.1" xmlns="http://www.w3.org/2000/svg" width="512" height="512">
<path d="M0 0 C6.01149372 2.41220827 11.5089429 2.50382823 17.92280293 2.44371796 C19.13655084 2.44839694 20.35029876 2.45307593 21.60082692 2.45789671 C24.94378099 2.4668917 28.28581708 2.45817369 31.62868464 2.44182181 C35.24351467 2.42858477 38.85828999 2.43862877 42.47312641 2.44593048 C48.72848932 2.45558702 54.98371264 2.45117518 61.23906612 2.43750763 C70.28856514 2.41810608 79.33790797 2.42460119 88.38741114 2.43808144 C103.07867474 2.45963776 117.76990138 2.46638161 132.46117878 2.46092987 C133.33943418 2.46060924 134.21768959 2.4602886 135.12255879 2.45995826 C141.35807229 2.45758455 147.59358549 2.45467937 153.8290987 2.45165253 C160.96069038 2.44819199 168.09228205 2.44497429 175.22387409 2.44237518 C176.10257053 2.44204967 176.98126697 2.44172416 177.88659058 2.44138879 C192.53078446 2.43644905 207.17492701 2.44711121 221.81910485 2.46894693 C230.8484114 2.48165069 239.87750663 2.48018496 248.90680178 2.46049607 C255.08806437 2.44790408 261.26921959 2.4493363 267.45048199 2.4618696 C271.01777941 2.46859169 274.58476365 2.46865698 278.1520319 2.45128822 C282.01659912 2.43259182 285.88072133 2.44459277 289.74531269 2.4595871 C290.87564798 2.4490982 292.00598327 2.4386093 293.17057115 2.42780256 C300.72360941 2.49334902 300.72360941 2.49334902 304.71186829 4.79833984 C307.14723853 7.70409994 307.16170828 9.52663442 307.1806612 13.29149628 C307.19032917 15.13324432 307.19032917 15.13324432 307.20019245 17.0121994 C307.18085651 18.29159393 307.16152058 19.57098846 307.1415987 20.88915253 C307.16093464 22.16467987 307.18027058 23.44020721 307.20019245 24.7543869 C307.19374714 25.983508 307.18730183 27.21262909 307.1806612 28.47899628 C307.17220173 30.16110199 307.17220173 30.16110199 307.16357136 31.87718964 C306.5165987 34.95165253 306.5165987 34.95165253 301.5165987 39.95165253 C293.9265987 39.95165253 286.3365987 39.95165253 278.5165987 39.95165253 C278.5165987 181.52165253 278.5165987 323.09165253 278.5165987 468.95165253 C284.1265987 468.95165253 289.7365987 468.95165253 295.5165987 468.95165253 C301.12798719 471.75734677 303.78013822 473.47873157 306.5165987 478.95165253 C306.5165987 487.86165253 306.5165987 496.77165253 306.5165987 505.95165253 C137.5565987 505.95165253 -31.4034013 505.95165253 -205.4834013 505.95165253 C-205.4834013 478.95165253 -205.4834013 478.95165253 -201.4834013 472.95165253 C-194.15472515 466.51130076 -188.50885793 468.95165253 -177.4834013 468.95165253 C-177.4834013 327.38165253 -177.4834013 185.81165253 -177.4834013 39.95165253 C-185.0734013 39.95165253 -192.6634013 39.95165253 -200.4834013 39.95165253 C-206.11810417 34.31694966 -206.11810417 34.31694966 -206.1474638 28.47899628 C-206.15390911 27.24987518 -206.16035442 26.02075409 -206.16699505 24.7543869 C-206.14765911 23.47885956 -206.12832317 22.20333221 -206.1084013 20.88915253 C-206.12773724 19.609758 -206.14707317 18.33036346 -206.16699505 17.0121994 C-206.16054974 15.78436737 -206.15410442 14.55653534 -206.1474638 13.29149628 C-206.14182415 12.1712204 -206.1361845 11.05094452 -206.13037395 9.89672089 C-205.4834013 6.95165253 -205.4834013 6.95165253 -203.69319439 4.7967453 C-198.76075854 1.96142181 -194.07260786 2.42229993 -188.47973919 2.48509979 C-187.26279369 2.48279358 -186.0458482 2.48048737 -184.79202557 2.47811127 C-182.14851673 2.4754805 -179.50613419 2.47998628 -176.86278248 2.49636269 C-172.67039862 2.52155952 -168.47842114 2.51517371 -164.28599834 2.50388336 C-153.86583261 2.48071332 -143.44578373 2.49897471 -133.02563763 2.525383 C-124.93847377 2.54541126 -116.85163866 2.55374293 -108.76447386 2.52844661 C-105.28631245 2.51863735 -101.80878071 2.51881537 -98.33067799 2.54323769 C-78.35172258 2.74727549 -78.35172258 2.74727549 -59.4834013 -3.04834747 C-40.46461239 -8.43802743 -18.17463118 -8.33151042 0 0 Z " fill="#EBECF1" transform="translate(205.48340129852295,6.048347473144531)"/>
<path d="M0 0 C1.040495 -0.00058631 2.08098999 -0.00117262 3.15301514 -0.0017767 C4.94491272 -0.02075764 4.94491272 -0.02075764 6.77301025 -0.04012203 C8.74146912 -0.02258373 8.74146912 -0.02258373 10.74969482 -0.00469112 C12.14427603 -0.0098286 13.53885075 -0.01710859 14.93341064 -0.02637386 C18.72281341 -0.04491865 22.51151434 -0.03193066 26.30088806 -0.01228356 C30.26332442 0.00407928 34.2257155 -0.00470664 38.18817139 -0.00980282 C44.84290809 -0.01432646 51.49736396 0.00156254 58.15203857 0.02948856 C65.84967087 0.0615419 73.54679661 0.06152576 81.24446487 0.04427379 C88.6443442 0.028419 96.04403752 0.03513544 103.44390869 0.05221081 C106.59540752 0.05908982 109.74675762 0.05804023 112.89825439 0.05066586 C116.60843563 0.04301377 120.31803927 0.05509287 124.02812195 0.08251476 C126.04210105 0.09270533 128.05614942 0.08320492 130.07012939 0.07318974 C131.26472778 0.08591419 132.45932617 0.09863865 133.69012451 0.1117487 C134.73061951 0.11455562 135.7711145 0.11736254 136.84313965 0.12025452 C139.42156982 0.62641239 139.42156982 0.62641239 141.25723743 2.31531334 C142.66814061 5.11583407 142.79126651 6.98610674 142.78233337 10.11866093 C142.78851936 11.79291142 142.78851936 11.79291142 142.79483032 13.50098515 C142.78404449 14.72090153 142.77325867 15.94081791 142.762146 17.19770145 C142.76258408 18.48575687 142.76302216 19.77381229 142.76347351 21.1008997 C142.76433415 24.62960162 142.7466976 28.15799753 142.72575164 31.68662834 C142.70699611 35.3755046 142.70523529 39.0643879 142.70167542 42.75330448 C142.69235163 49.73726767 142.66773339 56.72108996 142.63762695 63.7049911 C142.60409328 71.65654508 142.58759954 79.6081058 142.57254064 87.55971289 C142.54118407 103.91536187 142.48841716 120.27086915 142.42156982 136.62641239 C142.97200958 136.61975056 143.52244934 136.61308872 144.08956909 136.60622501 C149.83233789 136.53971717 155.57499678 136.49454784 161.3180542 136.46161747 C163.45970099 136.44655598 165.60131707 136.42610267 167.74285889 136.40009403 C170.82594394 136.36359511 173.9086202 136.34665937 176.99188232 136.33344364 C178.42191086 136.31021786 178.42191086 136.31021786 179.88082886 136.28652287 C185.15910556 136.28519466 188.87456352 136.63144497 193.42156982 139.62641239 C203.09530521 150.34595701 198.42156982 153.48240769 198.42156982 173.62641239 C29.46156982 173.62641239 -139.49843018 173.62641239 -313.57843018 173.62641239 C-313.57843018 146.62641239 -313.57843018 146.62641239 -309.57843018 140.62641239 C-305.75544504 137.26681939 -302.58495233 136.50125162 -297.57092762 136.50336456 C-296.53038599 136.50137351 -295.48984436 136.49938247 -294.41777116 136.49733108 C-293.27089804 136.50024392 -292.12402492 136.50315677 -290.94239807 136.50615788 C-289.11933058 136.50487624 -289.11933058 136.50487624 -287.25943345 136.50356871 C-283.87992259 136.50220342 -280.50046928 136.50533998 -277.12096536 136.51034677 C-273.47885727 136.51465638 -269.83675103 136.51320448 -266.19464111 136.5124445 C-259.88244008 136.51191959 -253.57024936 136.51506296 -247.25805092 136.52068233 C-238.13161863 136.52880178 -229.00519134 136.53141301 -219.87875583 136.53267033 C-205.07250838 136.53486014 -190.26626643 136.54151834 -175.46002197 136.55097294 C-161.07525663 136.56014887 -146.69049278 136.56722882 -132.3057251 136.57148075 C-130.97620082 136.57187484 -130.97620082 136.57187484 -129.61981747 136.57227688 C-125.17336022 136.5735819 -120.72690296 136.57484561 -116.28044569 136.57608879 C-79.37976997 136.58645921 -42.4791005 136.60407563 -5.57843018 136.62641239 C-5.58119555 135.95588243 -5.58396093 135.28535246 -5.58681011 134.5945034 C-5.65306748 118.27790116 -5.70270952 101.96134154 -5.73386669 85.64463615 C-5.74933461 77.75399093 -5.77042265 69.86343552 -5.80474854 61.97284794 C-5.83465325 55.09528868 -5.85400573 48.21779446 -5.86069566 41.34017199 C-5.86460613 37.69860894 -5.87379453 34.05723197 -5.89562035 30.41572857 C-5.91978982 26.35021178 -5.92039948 22.28501836 -5.91900635 18.21942997 C-5.93518509 16.40897442 -5.93518509 16.40897442 -5.95169067 14.56194401 C-5.94756668 13.45281651 -5.94344269 12.343689 -5.93919373 11.20095158 C-5.9419591 10.23952149 -5.94472448 9.27809141 -5.94757366 8.28752708 C-5.37641589 4.17011367 -4.21442097 1.02386543 0 0 Z " fill="#FDFEFE" transform="translate(313.57843017578125,338.3735876083374)"/>
<path d="M0 0 C6.01149372 2.41220827 11.5089429 2.50382823 17.92280293 2.44371796 C19.13655084 2.44839694 20.35029876 2.45307593 21.60082692 2.45789671 C24.94378099 2.4668917 28.28581708 2.45817369 31.62868464 2.44182181 C35.24351467 2.42858477 38.85828999 2.43862877 42.47312641 2.44593048 C48.72848932 2.45558702 54.98371264 2.45117518 61.23906612 2.43750763 C70.28856514 2.41810608 79.33790797 2.42460119 88.38741114 2.43808144 C103.07867474 2.45963776 117.76990138 2.46638161 132.46117878 2.46092987 C133.33943418 2.46060924 134.21768959 2.4602886 135.12255879 2.45995826 C141.35807229 2.45758455 147.59358549 2.45467937 153.8290987 2.45165253 C160.96069038 2.44819199 168.09228205 2.44497429 175.22387409 2.44237518 C176.10257053 2.44204967 176.98126697 2.44172416 177.88659058 2.44138879 C192.53078446 2.43644905 207.17492701 2.44711121 221.81910485 2.46894693 C230.8484114 2.48165069 239.87750663 2.48018496 248.90680178 2.46049607 C255.08806437 2.44790408 261.26921959 2.4493363 267.45048199 2.4618696 C271.01777941 2.46859169 274.58476365 2.46865698 278.1520319 2.45128822 C282.01659912 2.43259182 285.88072133 2.44459277 289.74531269 2.4595871 C290.87564798 2.4490982 292.00598327 2.4386093 293.17057115 2.42780256 C300.72360941 2.49334902 300.72360941 2.49334902 304.71186829 4.79833984 C307.14723853 7.70409994 307.16170828 9.52663442 307.1806612 13.29149628 C307.18710651 14.51932831 307.19355183 15.74716034 307.20019245 17.0121994 C307.18085651 18.29159393 307.16152058 19.57098846 307.1415987 20.88915253 C307.17060261 22.80244354 307.17060261 22.80244354 307.20019245 24.7543869 C307.19374714 25.983508 307.18730183 27.21262909 307.1806612 28.47899628 C307.17502155 29.60040009 307.1693819 30.72180389 307.16357136 31.87718964 C306.27580022 36.09594509 304.95569162 37.349522 301.5165987 39.95165253 C298.10244731 40.6807938 294.75244917 40.60497475 291.27250385 40.55292511 C290.23100943 40.55719723 289.18951501 40.56146936 288.11646014 40.56587094 C284.62139316 40.57411652 281.1275222 40.54658836 277.6325655 40.51927948 C275.12939705 40.51786936 272.62622652 40.51866028 270.12305927 40.521492 C264.73127731 40.52263114 259.3398687 40.5084365 253.94818401 40.48030281 C246.15279792 40.43965316 238.35755809 40.42664414 230.5620775 40.42036285 C217.91426658 40.40942193 205.26661697 40.37615333 192.61889362 40.32884979 C180.33342006 40.28294891 168.04799032 40.24755962 155.76244831 40.22631073 C155.00506505 40.22499711 154.24768179 40.2236835 153.46734753 40.22233007 C149.66774687 40.21580484 145.86814591 40.20948631 142.06854475 40.20327055 C110.5511121 40.15144386 79.03387991 40.06301231 47.5165987 39.95165253 C48.34043049 41.65321503 48.34043049 41.65321503 49.18090534 43.38915253 C49.90898362 44.90984462 50.6367502 46.43068597 51.36425495 47.95165253 C51.90596333 49.06733612 51.90596333 49.06733612 52.4586153 50.20555878 C57.053629 59.85167994 60.05129386 70.22941061 60.5165987 80.95165253 C60.55655964 81.65548065 60.59652058 82.35930878 60.63769245 83.08446503 C61.43596231 110.78912472 51.89170199 135.14919069 33.04394245 155.47899628 C12.01741171 176.05054799 -12.83985832 182.53357162 -41.7021513 182.23290253 C-49.82220446 182.00883925 -56.82381578 180.66237895 -64.4834013 177.95165253 C-65.51851849 177.60102753 -66.55363567 177.25040253 -67.62012005 176.88915253 C-80.21902401 172.14603574 -90.88292858 164.2575259 -100.4834013 154.95165253 C-101.39992474 154.14534393 -101.39992474 154.14534393 -102.3349638 153.32274628 C-117.48115978 139.52518418 -126.61834303 116.5145448 -127.60766888 96.42870331 C-128.17736345 77.60232613 -126.01941298 61.87899773 -117.4834013 44.95165253 C-116.9471513 43.87915253 -116.4109013 42.80665253 -115.8584013 41.70165253 C-111.52338913 33.69855315 -105.85756389 27.34362004 -99.4834013 20.95165253 C-98.72543255 20.17048065 -97.9674638 19.38930878 -97.1865263 18.58446503 C-85.47129848 7.23281324 -71.24166293 -0.25947582 -55.4834013 -4.04834747 C-54.60297161 -4.29069122 -53.72254192 -4.53303497 -52.81543255 -4.78272247 C-36.02238838 -8.73402698 -15.70723737 -7.20042187 0 0 Z " fill="#FEFEFE" transform="translate(205.48340129852295,6.048347473144531)"/>
<path d="M0 0 C0.82896706 -0.00205263 1.65793412 -0.00410527 2.51202139 -0.0062201 C5.31395843 -0.01191366 8.11584667 -0.01042996 10.91778851 -0.00901413 C12.93725427 -0.01159641 14.95671953 -0.01460919 16.97618407 -0.01801753 C22.54459606 -0.02610679 28.11299517 -0.02787817 33.68141234 -0.028615 C39.67948894 -0.0304622 45.6775588 -0.0380078 51.67563152 -0.04475021 C65.48401241 -0.05905673 79.29239151 -0.0648617 93.10077798 -0.06944216 C99.92211796 -0.07177707 106.7434571 -0.07537959 113.56479642 -0.07913754 C136.90813853 -0.0919734 160.25148018 -0.1026929 183.59482574 -0.10614014 C185.06049724 -0.10636177 186.52616873 -0.10658355 187.99184022 -0.10680549 C189.46108008 -0.10702613 190.93031994 -0.10724661 192.3995598 -0.10746694 C195.34717961 -0.10790949 198.29479943 -0.10835661 201.24241924 -0.10880661 C201.97325895 -0.108916 202.70409866 -0.10902539 203.45708502 -0.1091381 C227.16099791 -0.1127697 250.86488023 -0.12869347 274.56878141 -0.15199697 C299.62133489 -0.1765814 324.6738709 -0.19031232 349.72643679 -0.19150805 C352.47544905 -0.19167951 355.2244613 -0.19189494 357.97347355 -0.19214249 C358.98882309 -0.19222614 358.98882309 -0.19222614 360.02468475 -0.19231148 C370.927502 -0.1934631 381.83028794 -0.20449441 392.73309461 -0.21902954 C403.68735011 -0.23338099 414.64157067 -0.23638623 425.59583382 -0.22858956 C431.53269364 -0.22467238 437.46944787 -0.22566464 443.40629482 -0.23964691 C448.83754234 -0.2523218 454.26860422 -0.25124501 459.69985124 -0.2390562 C461.66822852 -0.23708804 463.63661866 -0.24022883 465.60497782 -0.24890056 C468.2744415 -0.25991962 470.94324151 -0.25255727 473.61268616 -0.24050903 C474.76695062 -0.25190182 474.76695062 -0.25190182 475.94453356 -0.26352477 C480.70504409 -0.21693682 483.95463637 0.60765151 487.99510479 3.13142776 C497.66884017 13.85097238 492.99510479 16.98742306 492.99510479 37.13142776 C324.03510479 37.13142776 155.07510479 37.13142776 -19.00489521 37.13142776 C-19.00489521 10.13142776 -19.00489521 10.13142776 -15.00489521 4.13142776 C-10.32884799 0.02217414 -5.9859669 -0.01364011 0 0 Z " fill="#433F3F" transform="translate(19.004895210266113,474.8685722351074)"/>
<path d="M0 0 C37.49612361 -0.09151699 74.99223043 -0.16201912 112.48844309 -0.20426132 C116.91327539 -0.20926426 121.33810748 -0.21444154 125.76293945 -0.21972656 C127.08431916 -0.22130043 127.08431916 -0.22130043 128.43239341 -0.22290608 C142.7039069 -0.24032046 156.97535607 -0.27186383 171.24683138 -0.30861118 C185.88616216 -0.34599188 200.5254592 -0.36822977 215.16483575 -0.37635398 C224.20116066 -0.38184772 233.23730376 -0.39921112 242.27357272 -0.43166587 C248.46659594 -0.45277834 254.65952491 -0.45920748 260.85258152 -0.45400551 C264.42792118 -0.4514386 268.00294272 -0.45542642 271.57822609 -0.4768219 C275.45206483 -0.4998351 279.32548683 -0.49196984 283.1993866 -0.48101807 C284.89928491 -0.49849512 284.89928491 -0.49849512 286.6335246 -0.51632524 C294.20644493 -0.45819618 294.20644493 -0.45819618 298.19710255 1.84599686 C300.6298308 4.75248735 300.6451146 6.57597905 300.6640625 10.33984375 C300.67050781 11.56767578 300.67695312 12.79550781 300.68359375 14.06054688 C300.66425781 15.33994141 300.64492188 16.61933594 300.625 17.9375 C300.65400391 19.85079102 300.65400391 19.85079102 300.68359375 21.80273438 C300.67714844 23.03185547 300.67070313 24.26097656 300.6640625 25.52734375 C300.65842285 26.64874756 300.6527832 27.77015137 300.64697266 28.92553711 C299.7594375 33.14317117 298.43521785 34.3948411 295 37 C291.59474652 37.7489336 288.24771361 37.70053877 284.77177429 37.67529297 C283.73184084 37.68732632 282.69190739 37.69935966 281.62046081 37.71175766 C278.13041606 37.74579226 274.64131994 37.74399582 271.15112305 37.7421875 C268.65106835 37.75878265 266.15102649 37.77741755 263.65100098 37.79794312 C257.56152703 37.84140145 251.47242696 37.86078506 245.38283642 37.86703002 C240.43209166 37.87214115 235.48142477 37.88478243 230.53071022 37.90270996 C216.48967288 37.95249013 202.4488249 37.9801783 188.40769913 37.98125458 C187.65094406 37.98131752 186.89418899 37.98138046 186.11450195 37.98144531 C184.97798079 37.98153217 184.97798079 37.98153217 183.8184996 37.98162079 C171.54066414 37.98394343 159.26372025 38.03967096 146.98616578 38.1193583 C134.37497373 38.20055981 121.76421984 38.24061416 109.15275985 38.23832512 C102.07408771 38.23791403 94.99640639 38.25460508 87.91797447 38.31585693 C81.2600947 38.37315047 74.60389577 38.37356259 67.94576263 38.3356514 C65.50283246 38.33069374 63.05978081 38.34452457 60.6170826 38.37855148 C42.14061608 38.61970851 42.14061608 38.61970851 36.88425636 34.64245605 C34.82183182 31.83401804 33.44894007 29.15626668 32 26 C23.37542359 14.92418712 12.46419631 7.25663397 0 1 C0 0.67 0 0.34 0 0 Z " fill="#535D67" transform="translate(212,9)"/>
<path d="M0 0 C0.70128525 -0.0004985 1.4025705 -0.00099701 2.12510681 -0.00151062 C3.60532469 0.00082705 5.08554676 0.01053762 6.56567383 0.02709961 C8.8351581 0.05073246 11.10347051 0.04765397 13.37304688 0.04101562 C24.49820941 0.08414691 24.49820941 0.08414691 26.77734375 2.36328125 C27.01081424 5.06032632 27.12677034 7.66251412 27.15625 10.36328125 C27.17324448 11.15476562 27.19023895 11.94625 27.20774841 12.76171875 C27.26096726 15.29549142 27.30120933 17.82924746 27.33984375 20.36328125 C27.38375593 22.89723027 27.43046185 25.43105138 27.48265076 27.96484375 C27.51462614 29.54287141 27.54151061 31.12101185 27.56288147 32.69921875 C27.55703785 36.66090738 27.55703785 36.66090738 28.77734375 40.36328125 C29.88770996 40.38310059 30.99807617 40.40291992 32.14208984 40.42333984 C36.25348977 40.49929206 40.36453093 40.58802485 44.47558594 40.68066406 C46.25643848 40.7189969 48.03736959 40.75384214 49.81835938 40.78515625 C52.37528609 40.83071396 54.93166985 40.88872232 57.48828125 40.94921875 C58.28728851 40.96076996 59.08629578 40.97232117 59.90951538 40.98422241 C65.54960034 41.13553784 65.54960034 41.13553784 67.77734375 43.36328125 C67.97682932 45.84894668 68.05724118 48.22078875 68.04296875 50.70703125 C68.0448822 51.43192749 68.04679565 52.15682373 68.04876709 52.90368652 C68.05012862 54.43693387 68.04643439 55.97019275 68.03808594 57.50341797 C68.02738553 59.85410384 68.03798183 62.20402548 68.05078125 64.5546875 C68.04945965 66.04297044 68.04689724 67.53125291 68.04296875 69.01953125 C68.04701721 69.72476929 68.05106567 70.43000732 68.05523682 71.15661621 C68.00726861 76.13335639 68.00726861 76.13335639 65.77734375 78.36328125 C62.99657582 78.59681532 60.30784865 78.71274996 57.5234375 78.7421875 C56.70738541 78.75918198 55.89133331 78.77617645 55.05055237 78.79368591 C52.43872848 78.84691197 49.82692131 78.88716021 47.21484375 78.92578125 C44.59927683 78.96964971 41.98383594 79.01630034 39.36842346 79.06858826 C37.73923669 79.100644 36.10993824 79.12750297 34.48057556 79.14881897 C30.82748431 78.87440206 30.82748431 78.87440206 27.77734375 80.36328125 C27.64191566 83.07698594 27.56677568 85.76884561 27.53125 88.484375 C27.49831579 90.15820844 27.46510407 91.83203643 27.43164062 93.50585938 C27.38416364 96.15694474 27.33973691 98.80800734 27.30053711 101.45922852 C27.26092241 104.00951359 27.20935507 106.55934027 27.15625 109.109375 C27.14783585 109.90524521 27.13942169 110.70111542 27.13075256 111.52110291 C27.00401727 117.13660773 27.00401727 117.13660773 24.77734375 119.36328125 C20.23474097 119.76356543 15.67767735 119.69228775 11.11938477 119.67895508 C8.85188628 119.67579802 6.58569615 119.69923885 4.31835938 119.72460938 C2.8789079 119.72688266 1.43945291 119.72758573 0 119.7265625 C-1.31218506 119.72954346 -2.62437012 119.73252441 -3.97631836 119.7355957 C-7.22265625 119.36328125 -7.22265625 119.36328125 -9.14428711 118.34887695 C-10.88666996 115.14063613 -10.68414271 111.79378198 -10.69921875 108.23046875 C-10.71479828 107.43802765 -10.73037781 106.64558655 -10.74642944 105.82913208 C-10.79395876 103.29885827 -10.82172129 100.76886081 -10.84765625 98.23828125 C-10.88410532 95.70075425 -10.92466931 93.16338537 -10.9703064 90.62600708 C-10.99760491 89.04689772 -11.01892479 87.46767205 -11.03384399 85.88839722 C-10.75717434 82.32975738 -10.75717434 82.32975738 -12.22265625 79.36328125 C-14.86362498 79.22791042 -17.48216262 79.15273675 -20.125 79.1171875 C-21.75326067 79.08425313 -23.38151574 79.05104142 -25.00976562 79.01757812 C-27.58842155 78.97010311 -30.16705412 78.92567639 -32.74584961 78.88647461 C-35.22664243 78.84685594 -37.70696441 78.79528957 -40.1875 78.7421875 C-40.96149643 78.73377335 -41.73549286 78.72535919 -42.53294373 78.71669006 C-47.99598273 78.58995477 -47.99598273 78.58995477 -50.22265625 76.36328125 C-50.42214182 73.87761582 -50.50255368 71.50577375 -50.48828125 69.01953125 C-50.4901947 68.29463501 -50.49210815 67.56973877 -50.49407959 66.82287598 C-50.49544112 65.28962863 -50.49174689 63.75636975 -50.48339844 62.22314453 C-50.47269803 59.87245866 -50.48329433 57.52253702 -50.49609375 55.171875 C-50.49477215 53.68359206 -50.49220974 52.19530959 -50.48828125 50.70703125 C-50.49232971 50.00179321 -50.49637817 49.29655518 -50.50054932 48.56994629 C-50.45258111 43.59320611 -50.45258111 43.59320611 -48.22265625 41.36328125 C-45.51403266 41.12986677 -42.89982315 41.0138608 -40.1875 40.984375 C-39.39364395 40.96738052 -38.5997879 40.95038605 -37.78187561 40.93287659 C-35.24138366 40.87965597 -32.70090885 40.83940472 -30.16015625 40.80078125 C-27.61591652 40.75691091 -25.07180626 40.71025942 -22.52772522 40.65797424 C-20.94305605 40.62592159 -19.35827217 40.59906161 -17.77342224 40.57774353 C-14.20071651 40.83806116 -14.20071651 40.83806116 -11.22265625 39.36328125 C-11.09962736 36.73396727 -11.03657099 34.12683234 -11.01171875 31.49609375 C-10.98364925 29.87238577 -10.95498478 28.24868798 -10.92578125 26.625 C-10.88449898 24.05517876 -10.84762823 21.48554767 -10.82128906 18.91552734 C-10.79371539 16.44197851 -10.74784253 13.96930624 -10.69921875 11.49609375 C-10.69596588 10.72725861 -10.69271301 9.95842346 -10.68936157 9.16629028 C-10.62291925 6.28947924 -10.53410734 3.93675458 -9.14428711 1.37768555 C-6.11449035 -0.22170532 -3.40187726 -0.00772822 0 0 Z " fill="#D81717" transform="translate(163.22265625,34.63671875)"/>
<path d="M0 0 C1.06460449 -0.0157608 2.12920898 -0.03152161 3.22607422 -0.04776001 C4.3657666 -0.03763885 5.50545898 -0.0275177 6.6796875 -0.01708984 C8.44916748 -0.02426529 8.44916748 -0.02426529 10.25439453 -0.03158569 C12.74578181 -0.03498461 15.23721369 -0.025783 17.72851562 -0.00488281 C21.54137649 0.02187923 25.35129318 -0.00463477 29.1640625 -0.03662109 C31.585944 -0.033317 34.00782366 -0.02691078 36.4296875 -0.01708984 C38.13922607 -0.03227158 38.13922607 -0.03227158 39.88330078 -0.04776001 C41.48020752 -0.0241188 41.48020752 -0.0241188 43.109375 0 C44.50905518 0.00596695 44.50905518 0.00596695 45.93701172 0.01205444 C49.8205808 0.95401554 51.22087692 2.41985256 53.5546875 5.64697266 C54.26355897 8.75363728 54.22838171 11.77194086 54.18579102 14.94775391 C54.19294632 15.87679535 54.20010162 16.80583679 54.20747375 17.76303101 C54.22435995 20.82901424 54.20495823 23.89353515 54.18359375 26.95947266 C54.18442245 29.09269329 54.18688188 31.22591386 54.19090271 33.35913086 C54.19376067 37.82799521 54.17905925 42.29635835 54.15161133 46.76513672 C54.11752898 52.49198875 54.12354701 58.21794455 54.1422739 63.94483948 C54.15284492 68.3492377 54.14390505 72.75342755 54.12888908 77.1578064 C54.12370759 79.26931133 54.12418867 81.38083803 54.13043404 83.49234009 C54.13588733 86.44409946 54.11550688 89.39457799 54.08813477 92.34619141 C54.09466064 93.2180307 54.10118652 94.08987 54.10791016 94.98812866 C54.04585936 98.92544439 53.80918135 101.18826429 51.86705017 104.68882751 C49.03515161 107.08692383 47.70154545 107.27444386 44.0234375 107.27807617 C42.91548828 107.29060928 41.80753906 107.3031424 40.66601562 107.3160553 C39.47427734 107.30279709 38.28253906 107.28953888 37.0546875 107.27587891 C35.21293945 107.27949684 35.21293945 107.27949684 33.33398438 107.28318787 C30.73824839 107.28220844 28.14249177 107.26879256 25.546875 107.24389648 C21.56959197 107.20960117 17.59453107 107.22323208 13.6171875 107.24267578 C11.09634469 107.23577734 8.57550763 107.226105 6.0546875 107.21337891 C4.26708008 107.22081871 4.26708008 107.22081871 2.44335938 107.22840881 C1.33541016 107.21257248 0.22746094 107.19673615 -0.9140625 107.18041992 C-2.37489258 107.17112206 -2.37489258 107.17112206 -3.86523438 107.16163635 C-6.4453125 106.64697266 -6.4453125 106.64697266 -8.75767517 105.193573 C-11.29999805 101.35727464 -11.01202515 97.8780749 -10.97875977 93.36791992 C-10.98737534 92.42927094 -10.99599091 91.49062195 -11.00486755 90.52352905 C-11.02757532 87.41986537 -11.02077945 84.31710114 -11.01171875 81.21337891 C-11.01695241 79.05630728 -11.02322793 76.89923795 -11.03050232 74.74217224 C-11.0409156 70.22033931 -11.03633191 65.69882088 -11.02172852 61.17700195 C-11.00454462 55.38165695 -11.02802687 49.58730373 -11.06321812 43.79206944 C-11.08517738 39.3370659 -11.08375406 34.88230018 -11.0754528 30.42725945 C-11.07463238 28.29061737 -11.08151304 26.153958 -11.09622383 24.01736641 C-11.1136409 21.02943078 -11.09915 18.04328354 -11.07641602 15.05541992 C-11.08810822 14.17265884 -11.09980042 13.28989777 -11.11184692 12.38038635 C-11.0453805 8.08760225 -10.8242657 6.17213683 -8.24620056 2.59938049 C-5.15278259 0.44305959 -3.72342496 0.01587326 0 0 Z " fill="#FDFEFE" transform="translate(318.4453125,88.35302734375)"/>
<path d="M0 0 C1.06460449 -0.0157608 2.12920898 -0.03152161 3.22607422 -0.04776001 C4.3657666 -0.03763885 5.50545898 -0.0275177 6.6796875 -0.01708984 C8.44916748 -0.02426529 8.44916748 -0.02426529 10.25439453 -0.03158569 C12.74578181 -0.03498461 15.23721369 -0.025783 17.72851562 -0.00488281 C21.54137649 0.02187923 25.35129318 -0.00463477 29.1640625 -0.03662109 C31.585944 -0.033317 34.00782366 -0.02691078 36.4296875 -0.01708984 C38.13922607 -0.03227158 38.13922607 -0.03227158 39.88330078 -0.04776001 C41.48020752 -0.0241188 41.48020752 -0.0241188 43.109375 0 C44.50905518 0.00596695 44.50905518 0.00596695 45.93701172 0.01205444 C49.8205808 0.95401554 51.22087692 2.41985256 53.5546875 5.64697266 C54.26355897 8.75363728 54.22838171 11.77194086 54.18579102 14.94775391 C54.19294632 15.87679535 54.20010162 16.80583679 54.20747375 17.76303101 C54.22435995 20.82901424 54.20495823 23.89353515 54.18359375 26.95947266 C54.18442245 29.09269329 54.18688188 31.22591386 54.19090271 33.35913086 C54.19376067 37.82799521 54.17905925 42.29635835 54.15161133 46.76513672 C54.11752898 52.49198875 54.12354701 58.21794455 54.1422739 63.94483948 C54.15284492 68.3492377 54.14390505 72.75342755 54.12888908 77.1578064 C54.12370759 79.26931133 54.12418867 81.38083803 54.13043404 83.49234009 C54.13588733 86.44409946 54.11550688 89.39457799 54.08813477 92.34619141 C54.09466064 93.2180307 54.10118652 94.08987 54.10791016 94.98812866 C54.0458638 98.92516296 53.80951971 101.18780418 51.86705017 104.68783569 C49.03780622 107.08489757 47.69911757 107.27893152 44.0234375 107.29394531 C42.91548828 107.30970612 41.80753906 107.32546692 40.66601562 107.34170532 C39.47427734 107.33158417 38.28253906 107.32146301 37.0546875 107.31103516 C35.21293945 107.3182106 35.21293945 107.3182106 33.33398438 107.32553101 C30.73826822 107.32893318 28.1425094 107.31970885 25.546875 107.29882812 C21.56934236 107.27207124 17.59463216 107.29856964 13.6171875 107.33056641 C11.09634792 107.32726237 8.57551011 107.32085627 6.0546875 107.31103516 C4.86294922 107.32115631 3.67121094 107.33127747 2.44335938 107.34170532 C1.33541016 107.32594452 0.22746094 107.31018372 -0.9140625 107.29394531 C-2.37489258 107.28797836 -2.37489258 107.28797836 -3.86523438 107.28189087 C-6.4453125 106.64697266 -6.4453125 106.64697266 -8.75767517 104.68783569 C-11.08457939 100.49511199 -11.01411254 97.06922344 -10.97875977 92.34619141 C-10.99168312 90.95262924 -10.99168312 90.95262924 -11.00486755 89.53091431 C-11.02753898 86.465149 -11.02078679 83.40029683 -11.01171875 80.33447266 C-11.01695354 78.20125049 -11.02322949 76.06803065 -11.03050232 73.93481445 C-11.04090852 69.46603496 -11.03634133 64.99757386 -11.02172852 60.52880859 C-11.00453447 54.80186949 -11.02804306 49.07593307 -11.06321812 43.34910583 C-11.08517613 38.94471589 -11.08375456 34.54056649 -11.0754528 30.13613892 C-11.07463253 28.02461649 -11.08151039 25.91307654 -11.09622383 23.80160522 C-11.11364125 20.84969379 -11.09915053 17.89959244 -11.07641602 14.94775391 C-11.08810822 14.07591461 -11.09980042 13.20407532 -11.11184692 12.30581665 C-11.04497107 8.03869559 -10.81407411 6.15688464 -8.24620056 2.60610962 C-5.15211844 0.44189223 -3.72789076 0.0158923 0 0 Z " fill="#FDFEFE" transform="translate(402.4453125,88.35302734375)"/>
<path d="M0 0 C1.10794922 -0.01253311 2.21589844 -0.02506622 3.35742188 -0.03797913 C5.1450293 -0.01809181 5.1450293 -0.01809181 6.96875 0.00219727 C8.19658203 -0.00021469 9.42441406 -0.00262665 10.68945312 -0.00511169 C13.28518911 -0.00413227 15.88094573 0.00928361 18.4765625 0.03417969 C22.45384553 0.068475 26.42890643 0.05484409 30.40625 0.03540039 C32.92709281 0.04229883 35.44792987 0.05197118 37.96875 0.06469727 C39.75635742 0.05725746 39.75635742 0.05725746 41.58007812 0.04966736 C43.24200195 0.07342186 43.24200195 0.07342186 44.9375 0.09765625 C46.39833008 0.10695412 46.39833008 0.10695412 47.88867188 0.11643982 C50.46875 0.63110352 50.46875 0.63110352 52.78309631 2.08351135 C55.32617279 5.92695901 55.01970921 9.4107804 54.97045898 13.92602539 C54.97856346 15.33640831 54.97856346 15.33640831 54.98683167 16.77528381 C54.9993405 19.88379376 54.98281328 22.99138144 54.96484375 26.09985352 C54.96499869 28.25931853 54.96648679 30.41878382 54.96925354 32.57824707 C54.9706385 37.1042917 54.95806293 41.6300198 54.93530273 46.15600586 C54.90691807 51.96021232 54.90965425 57.76389274 54.92239285 63.56813812 C54.9293448 68.02736918 54.92156622 72.48647846 54.90913582 76.94569397 C54.90461663 79.08593784 54.90428858 81.22619476 54.90820122 83.36643982 C54.91110865 86.35662678 54.89462848 89.34608652 54.87280273 92.33618164 C54.87730438 93.22253799 54.88180603 94.10889435 54.88644409 95.02210999 C54.81410594 100.98094203 54.81410594 100.98094203 53.1309967 104.14953613 C50.1563056 106.80089065 47.23636402 106.76345464 43.43408203 106.79223633 C42.40936798 106.80184387 41.38465393 106.81145142 40.32888794 106.8213501 C39.22262054 106.82559998 38.11635315 106.82984985 36.9765625 106.83422852 C35.83847137 106.83992859 34.70038025 106.84562866 33.52780151 106.85150146 C31.11864146 106.86095231 28.70946848 106.86748578 26.30029297 106.87133789 C22.61533063 106.88104666 18.93092523 106.91207133 15.24609375 106.94360352 C12.90625331 106.95013328 10.56640889 106.95538386 8.2265625 106.95922852 C7.12434357 106.97157532 6.02212463 106.98392212 4.88650513 106.99664307 C3.85548676 106.99364197 2.82446838 106.99064087 1.76220703 106.98754883 C0.85858429 106.99119446 -0.04503845 106.99484009 -0.9760437 106.99859619 C-4.12227391 106.54610178 -5.99378531 105.52451222 -8.53125 103.63110352 C-9.8604113 99.64361963 -9.69539459 95.80765882 -9.70825195 91.64916992 C-9.71482315 90.7301741 -9.72139435 89.81117828 -9.72816467 88.86433411 C-9.74789035 85.82044393 -9.75955738 82.77660303 -9.76953125 79.73266602 C-9.77564454 78.17401384 -9.77564454 78.17401384 -9.78188133 76.58387375 C-9.80273686 71.08627267 -9.81704202 65.58869653 -9.82641602 60.09106445 C-9.83749196 54.40910331 -9.87190718 48.72753255 -9.91158772 43.04570961 C-9.93770945 38.67912051 -9.9461038 34.31262518 -9.94969749 29.94596481 C-9.9545733 27.85117322 -9.96621544 25.75638608 -9.98473549 23.66167068 C-10.00903683 20.73140563 -10.00817853 17.80216077 -10.0012207 14.87182617 C-10.01403076 14.00619553 -10.02684082 13.14056488 -10.04003906 12.248703 C-10.00600035 8.31786077 -9.78578047 6.09039145 -7.84757996 2.59300232 C-5.01294697 0.19210816 -3.68169896 0.00363586 0 0 Z " fill="#FDFEFE" transform="translate(65.53125,213.368896484375)"/>
<path d="M0 0 C1.10794922 -0.01583633 2.21589844 -0.03167267 3.35742188 -0.04798889 C4.54916016 -0.04302902 5.74089844 -0.03806915 6.96875 -0.03295898 C8.19658203 -0.03915756 9.42441406 -0.04535614 10.68945312 -0.05174255 C13.28514818 -0.05884583 15.88088874 -0.055658 18.4765625 -0.04296875 C22.45397521 -0.02910424 26.42903609 -0.06317058 30.40625 -0.10131836 C32.92708391 -0.10226952 35.44792077 -0.10041091 37.96875 -0.09545898 C39.75635742 -0.1153463 39.75635742 -0.1153463 41.58007812 -0.13563538 C42.68802734 -0.12310226 43.79597656 -0.11056915 44.9375 -0.09765625 C45.91138672 -0.09669449 46.88527344 -0.09573273 47.88867188 -0.09474182 C50.46875 0.53344727 50.46875 0.53344727 52.78309631 2.49732971 C55.09921637 6.66901268 55.02312387 10.0441479 54.97045898 14.74243164 C54.97856346 16.12136345 54.97856346 16.12136345 54.98683167 17.52815247 C54.99932074 20.56149669 54.98282648 23.59389213 54.96484375 26.62719727 C54.96499873 28.73799693 54.9664876 30.84879687 54.96925354 32.95959473 C54.97063762 37.38131302 54.95807775 41.80270698 54.93530273 46.22436523 C54.90691832 51.890565 54.90965543 57.55622588 54.92239285 63.22246552 C54.92934971 67.58051145 54.9215606 71.93843296 54.90913582 76.29646301 C54.90462141 78.38564069 54.90428442 80.47483173 54.90820122 82.56401062 C54.91111346 85.48443964 54.89460547 88.40412754 54.87280273 91.32446289 C54.87730438 92.18695145 54.88180603 93.04944 54.88644409 93.93806458 C54.82886946 98.5825254 54.57820462 101.81661329 51.46875 105.53344727 C48.50478352 106.52143609 46.52785407 106.67116151 43.43408203 106.69458008 C42.40936798 106.70418762 41.38465393 106.71379517 40.32888794 106.72369385 C39.22262054 106.72794373 38.11635315 106.7321936 36.9765625 106.73657227 C35.83847137 106.74227234 34.70038025 106.74797241 33.52780151 106.75384521 C31.11864146 106.76329606 28.70946848 106.76982953 26.30029297 106.77368164 C22.61533063 106.78339041 18.93092523 106.81441508 15.24609375 106.84594727 C12.90625331 106.85247703 10.56640889 106.85772761 8.2265625 106.86157227 C7.12434357 106.87391907 6.02212463 106.88626587 4.88650513 106.89898682 C3.85548676 106.89598572 2.82446838 106.89298462 1.76220703 106.88989258 C0.85858429 106.89353821 -0.04503845 106.89718384 -0.9760437 106.90093994 C-4.12227391 106.44844553 -5.99378531 105.42685597 -8.53125 103.53344727 C-9.87080136 99.51479319 -9.69545349 95.63527309 -9.70825195 91.44384766 C-9.71482315 90.51349197 -9.72139435 89.58313629 -9.72816467 88.62458801 C-9.74788929 85.54342572 -9.75955641 82.46231207 -9.76953125 79.38110352 C-9.77360678 78.32972136 -9.7776823 77.2783392 -9.78188133 76.19509697 C-9.80273522 70.63381013 -9.81704176 65.07254795 -9.82641602 59.51123047 C-9.8374988 53.75967101 -9.87192231 48.00849648 -9.91158772 42.2570734 C-9.93768928 37.83991256 -9.94610194 33.42284451 -9.94969749 29.00561333 C-9.95457761 26.88487577 -9.96623185 24.76414275 -9.98473549 22.6434803 C-10.00899672 19.67948651 -10.00818608 16.71650339 -10.0012207 13.75244141 C-10.01403076 12.87386475 -10.02684082 11.99528809 -10.04003906 11.09008789 C-10.00767268 7.31955724 -9.96350983 5.18628924 -7.84757996 1.99060059 C-5.01790903 0.21051551 -3.33365811 0.02121801 0 0 Z " fill="#FDFEFE" transform="translate(317.53125,213.466552734375)"/>
<path d="M0 0 C1.66192383 -0.0236412 1.66192383 -0.0236412 3.35742188 -0.04776001 C5.1450293 -0.03257828 5.1450293 -0.03257828 6.96875 -0.01708984 C8.81049805 -0.02426529 8.81049805 -0.02426529 10.68945312 -0.03158569 C13.28516928 -0.03498787 15.8809281 -0.02576353 18.4765625 -0.00488281 C22.45409514 0.02187407 26.42880534 -0.00462432 30.40625 -0.03662109 C32.92708958 -0.03331706 35.44792739 -0.02691096 37.96875 -0.01708984 C39.75635742 -0.03227158 39.75635742 -0.03227158 41.58007812 -0.04776001 C42.68802734 -0.03199921 43.79597656 -0.0162384 44.9375 0 C46.39833008 0.00596695 46.39833008 0.00596695 47.88867188 0.01205444 C50.46875 0.64697266 50.46875 0.64697266 52.78309631 2.6051178 C55.11121456 6.80633531 55.0228161 10.23364877 54.97045898 14.96362305 C54.97856346 16.35959465 54.97856346 16.35959465 54.98683167 17.7837677 C54.99932051 20.85438005 54.98282785 23.92405519 54.96484375 26.99462891 C54.96499872 29.13024444 54.96648738 31.26586025 54.96925354 33.401474 C54.97063756 37.87446545 54.95807761 42.34713626 54.93530273 46.82006836 C54.90690114 52.55586673 54.90966016 58.29113301 54.92239285 64.02697086 C54.92934434 68.4355881 54.92156703 72.84408214 54.90913582 77.25268364 C54.9046174 79.36780767 54.90428792 81.48294491 54.90820122 83.59807014 C54.91110864 86.55222871 54.89462919 89.5056512 54.87280273 92.4597168 C54.87730438 93.33515137 54.88180603 94.21058594 54.88644409 95.11254883 C54.84307237 98.64210741 54.80883105 101.00845227 53.1309967 104.15867615 C50.15969712 106.81903624 47.23876056 106.77930564 43.43408203 106.80810547 C42.40936798 106.81771301 41.38465393 106.82732056 40.32888794 106.83721924 C39.22262054 106.84146912 38.11635315 106.84571899 36.9765625 106.85009766 C35.83847137 106.85579773 34.70038025 106.8614978 33.52780151 106.86737061 C31.11864146 106.87682145 28.70946848 106.88335492 26.30029297 106.88720703 C22.61533063 106.8969158 18.93092523 106.92794047 15.24609375 106.95947266 C12.90625331 106.96600242 10.56640889 106.971253 8.2265625 106.97509766 C7.12434357 106.98744446 6.02212463 106.99979126 4.88650513 107.01251221 C3.85548676 107.00951111 2.82446838 107.00651001 1.76220703 107.00341797 C0.85858429 107.0070636 -0.04503845 107.01070923 -0.9760437 107.01446533 C-4.12227391 106.56197093 -5.99378531 105.54038136 -8.53125 103.64697266 C-9.8604113 99.65948877 -9.69539459 95.82352796 -9.70825195 91.66503906 C-9.71482315 90.74604324 -9.72139435 89.82704742 -9.72816467 88.88020325 C-9.74789035 85.83631307 -9.75955738 82.79247217 -9.76953125 79.74853516 C-9.77564454 78.18988298 -9.77564454 78.18988298 -9.78188133 76.59974289 C-9.80273686 71.10214181 -9.81704202 65.60456567 -9.82641602 60.10693359 C-9.83749196 54.42497246 -9.87190718 48.7434017 -9.91158772 43.06157875 C-9.93770945 38.69498965 -9.9461038 34.32849432 -9.94969749 29.96183395 C-9.9545733 27.86704236 -9.96621544 25.77225522 -9.98473549 23.67753983 C-10.00903683 20.74727477 -10.00817853 17.81802991 -10.0012207 14.88769531 C-10.01403076 14.02206467 -10.02684082 13.15643402 -10.04003906 12.26457214 C-10.00600281 8.33401487 -9.78611645 6.10671671 -7.84757996 2.60986328 C-5.01560598 0.21000865 -3.67926509 0.01502843 0 0 Z " fill="#FDFEFE" transform="translate(149.53125,213.35302734375)"/>
<path d="M0 0 C1.66192383 -0.0236412 1.66192383 -0.0236412 3.35742188 -0.04776001 C5.1450293 -0.03257828 5.1450293 -0.03257828 6.96875 -0.01708984 C8.81049805 -0.02426529 8.81049805 -0.02426529 10.68945312 -0.03158569 C13.28516928 -0.03498787 15.8809281 -0.02576353 18.4765625 -0.00488281 C22.45409514 0.02187407 26.42880534 -0.00462432 30.40625 -0.03662109 C32.92708958 -0.03331706 35.44792739 -0.02691096 37.96875 -0.01708984 C39.75635742 -0.03227158 39.75635742 -0.03227158 41.58007812 -0.04776001 C42.68802734 -0.03199921 43.79597656 -0.0162384 44.9375 0 C46.39833008 0.00596695 46.39833008 0.00596695 47.88867188 0.01205444 C50.46875 0.64697266 50.46875 0.64697266 52.78309631 2.61184692 C55.09961208 6.78287961 55.02311935 10.15807674 54.97045898 14.85595703 C54.97856346 16.23488884 54.97856346 16.23488884 54.98683167 17.64167786 C54.99932074 20.67502208 54.98282648 23.70741752 54.96484375 26.74072266 C54.96499873 28.85152232 54.9664876 30.96232226 54.96925354 33.07312012 C54.97063762 37.49483841 54.95807775 41.91623237 54.93530273 46.33789062 C54.90691832 52.00409039 54.90965543 57.66975127 54.92239285 63.33599091 C54.92934971 67.69403684 54.9215606 72.05195835 54.90913582 76.4099884 C54.90462141 78.49916608 54.90428442 80.58835712 54.90820122 82.67753601 C54.91111346 85.59796503 54.89460547 88.51765293 54.87280273 91.43798828 C54.87730438 92.30047684 54.88180603 93.16296539 54.88644409 94.05158997 C54.82886946 98.69605079 54.57820462 101.93013868 51.46875 105.64697266 C48.50478352 106.63496148 46.52785407 106.7846869 43.43408203 106.80810547 C42.40936798 106.81771301 41.38465393 106.82732056 40.32888794 106.83721924 C39.22262054 106.84146912 38.11635315 106.84571899 36.9765625 106.85009766 C35.83847137 106.85579773 34.70038025 106.8614978 33.52780151 106.86737061 C31.11864146 106.87682145 28.70946848 106.88335492 26.30029297 106.88720703 C22.61533063 106.8969158 18.93092523 106.92794047 15.24609375 106.95947266 C12.90625331 106.96600242 10.56640889 106.971253 8.2265625 106.97509766 C7.12434357 106.98744446 6.02212463 106.99979126 4.88650513 107.01251221 C3.85548676 107.00951111 2.82446838 107.00651001 1.76220703 107.00341797 C0.85858429 107.0070636 -0.04503845 107.01070923 -0.9760437 107.01446533 C-4.12227391 106.56197093 -5.99378531 105.54038136 -8.53125 103.64697266 C-9.8604113 99.65948877 -9.69539459 95.82352796 -9.70825195 91.66503906 C-9.71482315 90.74604324 -9.72139435 89.82704742 -9.72816467 88.88020325 C-9.74789035 85.83631307 -9.75955738 82.79247217 -9.76953125 79.74853516 C-9.77564454 78.18988298 -9.77564454 78.18988298 -9.78188133 76.59974289 C-9.80273686 71.10214181 -9.81704202 65.60456567 -9.82641602 60.10693359 C-9.83749196 54.42497246 -9.87190718 48.7434017 -9.91158772 43.06157875 C-9.93770945 38.69498965 -9.9461038 34.32849432 -9.94969749 29.96183395 C-9.9545733 27.86704236 -9.96621544 25.77225522 -9.98473549 23.67753983 C-10.00903683 20.74727477 -10.00817853 17.81802991 -10.0012207 14.88769531 C-10.01403076 14.02206467 -10.02684082 13.15643402 -10.04003906 12.26457214 C-10.00600281 8.33401487 -9.78611645 6.10671671 -7.84757996 2.60986328 C-5.01560598 0.21000865 -3.67926509 0.01502843 0 0 Z " fill="#FDFEFE" transform="translate(401.53125,213.35302734375)"/>
<path d="M0 0 C1.10817581 -0.01606293 2.21635162 -0.03212585 3.35810852 -0.04867554 C8.43567437 -0.09293933 13.51310682 -0.13419274 18.59082031 -0.15722656 C21.27313378 -0.17056129 23.95468558 -0.19839932 26.63671875 -0.23925781 C30.49266599 -0.29388472 34.34757589 -0.31588048 38.20385742 -0.33056641 C39.40500687 -0.35323578 40.60615631 -0.37590515 41.84370422 -0.39926147 C43.52015266 -0.39498642 43.52015266 -0.39498642 45.23046875 -0.390625 C46.21340408 -0.39871185 47.19633942 -0.40679871 48.20906067 -0.41513062 C50.80932617 0.19287109 50.80932617 0.19287109 53.12664795 2.14704895 C55.44911963 6.35096362 55.36339242 9.77953331 55.31103516 14.50952148 C55.31913963 15.90549309 55.31913963 15.90549309 55.32740784 17.32966614 C55.33989668 20.40027849 55.32340402 23.46995363 55.30541992 26.54052734 C55.30557489 28.67614287 55.30706355 30.81175869 55.30982971 32.94737244 C55.31121373 37.42036389 55.29865378 41.89303469 55.27587891 46.3659668 C55.24747731 52.10176517 55.25023633 57.83703145 55.26296902 63.5728693 C55.26992052 67.98148653 55.26214321 72.38998057 55.24971199 76.79858208 C55.24519357 78.91370611 55.24486409 81.02884334 55.24877739 83.14396858 C55.25168481 86.09812714 55.23520536 89.05154964 55.21337891 92.00561523 C55.21788055 92.8810498 55.2223822 93.75648438 55.22702026 94.65844727 C55.18364854 98.18800584 55.14940722 100.55435071 53.47157288 103.70457458 C50.5002733 106.36493467 47.57933673 106.32520408 43.7746582 106.35400391 C42.74994415 106.36361145 41.7252301 106.37321899 40.66946411 106.38311768 C39.56319672 106.38736755 38.45692932 106.39161743 37.31713867 106.39599609 C36.17904755 106.40169617 35.04095642 106.40739624 33.86837769 106.41326904 C31.45921763 106.42271989 29.05004465 106.42925336 26.64086914 106.43310547 C22.9559068 106.44281424 19.2715014 106.47383891 15.58666992 106.50537109 C13.24682949 106.51190086 10.90698506 106.51715144 8.56713867 106.52099609 C7.46491974 106.5333429 6.36270081 106.5456897 5.2270813 106.55841064 C4.19606293 106.55540955 3.16504456 106.55240845 2.1027832 106.54931641 C1.19916046 106.55296204 0.29553772 106.55660767 -0.63546753 106.56036377 C-3.78169774 106.10786936 -5.65320913 105.0862798 -8.19067383 103.19287109 C-9.51144793 99.2305488 -9.34643854 95.43414289 -9.35180664 91.30273438 C-9.359254 89.938871 -9.359254 89.938871 -9.36685181 88.54745483 C-9.38147102 85.53602342 -9.38827475 82.52464468 -9.39379883 79.51318359 C-9.39955011 77.42194619 -9.40530785 75.3307088 -9.41107178 73.23947144 C-9.42158083 68.8530045 -9.42742425 64.46655588 -9.4309082 60.08007812 C-9.43639523 54.45872138 -9.46042822 48.83760658 -9.48888016 43.21632576 C-9.50750035 38.89606009 -9.51271179 34.5758528 -9.51424408 30.25555038 C-9.51727211 28.1831009 -9.52530569 26.11065248 -9.53842926 24.03824234 C-9.55547798 21.13923961 -9.5536124 18.24082936 -9.54711914 15.34179688 C-9.55633392 14.48551697 -9.56554871 13.62923706 -9.57504272 12.74700928 C-9.52231801 5.23502468 -8.08665708 0.10606078 0 0 Z " fill="#FDFEFE" transform="translate(233.190673828125,213.80712890625)"/>
<path d="M0 0 C1.01465332 -0.00096176 2.02930664 -0.00192352 3.07470703 -0.00291443 C4.22600098 -0.01544754 5.37729492 -0.02798065 6.56347656 -0.04089355 C7.80726074 -0.02763535 9.05104492 -0.01437714 10.33251953 -0.00071716 C11.60853027 -0.00312912 12.88454102 -0.00554108 14.19921875 -0.00802612 C16.90010447 -0.00704554 19.59878585 0.00381351 22.29931641 0.03126526 C25.75994125 0.06535056 29.21908321 0.05933149 32.67977905 0.04060268 C35.98077906 0.02749035 39.28155163 0.04574747 42.58251953 0.06178284 C43.82630371 0.05682297 45.07008789 0.0518631 46.3515625 0.04675293 C48.07850342 0.07050743 48.07850342 0.07050743 49.84033203 0.09474182 C50.85498535 0.1009404 51.86963867 0.10713898 52.91503906 0.11352539 C55.45751953 0.62818909 55.45751953 0.62818909 57.28334045 2.08059692 C59.08050624 5.97987051 58.88313336 9.67781882 58.86157227 13.92311096 C58.86843552 14.86336624 58.87529877 15.80362152 58.88237 16.77236938 C58.90067309 19.88071283 58.8967958 22.98855331 58.89111328 26.09693909 C58.89567306 28.25640528 58.90097801 30.41587002 58.90699768 32.57533264 C58.91593544 37.10131221 58.91349763 41.62711538 58.90356445 46.15309143 C58.89206802 51.95736472 58.91229357 57.76103026 58.94148159 63.56522369 C58.95981283 68.02444841 58.95955736 72.48352661 58.95384407 76.94277954 C58.95369051 79.08303684 58.9597633 81.22330385 58.97213554 83.36352539 C58.98698719 86.3538293 58.97641148 89.34299918 58.95922852 92.33326721 C58.96889648 93.21962357 58.97856445 94.10597992 58.98852539 95.01919556 C58.94290393 98.80418841 58.89363894 100.96880873 56.77186584 104.17677307 C53.94061209 105.95236172 52.25897641 106.13487691 48.92626953 106.14576721 C47.81832031 106.15837585 46.71037109 106.1709845 45.56884766 106.18397522 C44.37710938 106.1758783 43.18537109 106.16778137 41.95751953 106.15943909 C40.11577148 106.16517944 40.11577148 106.16517944 38.23681641 106.17103577 C35.64110494 106.1737575 33.04536617 106.1663782 30.44970703 106.14967346 C26.47252354 106.12826983 22.49714672 106.14946871 18.52001953 106.17506409 C15.9991822 106.17242086 13.478346 106.16729599 10.95751953 106.15943909 C9.16991211 106.17158447 9.16991211 106.17158447 7.34619141 106.18397522 C6.23824219 106.17136658 5.13029297 106.15875793 3.98876953 106.14576721 C3.01488281 106.14258484 2.04099609 106.13940247 1.03759766 106.13612366 C-1.54248047 105.62818909 -1.54248047 105.62818909 -3.85682678 104.17004395 C-6.3872075 100.3543963 -6.09372843 96.92668721 -6.04418945 92.44093323 C-6.04959244 91.51203781 -6.05499542 90.5831424 -6.06056213 89.62609863 C-6.07307144 86.55485694 -6.05654222 83.48454872 -6.03857422 80.41334534 C-6.03872917 78.2786962 -6.04021747 76.14404677 -6.04298401 74.00939941 C-6.04436904 69.53462799 -6.03179336 65.06017667 -6.0090332 60.58546448 C-5.9806657 54.85085667 -5.98337997 49.11678155 -5.99612331 43.38213444 C-6.00308058 38.97347469 -5.99529032 34.56493792 -5.98286629 30.15629387 C-5.97835106 28.04199635 -5.97801561 25.92768563 -5.98193169 23.81338692 C-5.98484387 20.85692954 -5.96833552 17.90120432 -5.9465332 14.94483948 C-5.95103485 14.07142914 -5.9555365 13.1980188 -5.96017456 12.29814148 C-5.82721051 1.43977116 -5.82721051 1.43977116 0 0 Z " fill="#FDFEFE" transform="translate(229.54248046875,338.37181091308594)"/>
<path d="M0 0 C1.01465332 -0.00096176 2.02930664 -0.00192352 3.07470703 -0.00291443 C4.22600098 -0.01544754 5.37729492 -0.02798065 6.56347656 -0.04089355 C7.80726074 -0.02763535 9.05104492 -0.01437714 10.33251953 -0.00071716 C11.60853027 -0.00312912 12.88454102 -0.00554108 14.19921875 -0.00802612 C16.90010447 -0.00704554 19.59878585 0.00381351 22.29931641 0.03126526 C25.75994125 0.06535056 29.21908321 0.05933149 32.67977905 0.04060268 C35.98077906 0.02749035 39.28155163 0.04574747 42.58251953 0.06178284 C43.82630371 0.05682297 45.07008789 0.0518631 46.3515625 0.04675293 C48.07850342 0.07050743 48.07850342 0.07050743 49.84033203 0.09474182 C50.85498535 0.1009404 51.86963867 0.10713898 52.91503906 0.11352539 C55.45751953 0.62818909 55.45751953 0.62818909 57.2853241 2.08633423 C59.07220809 5.96111452 58.86659961 9.61300399 58.82983398 13.83131409 C58.83348465 14.7618158 58.83713531 15.6923175 58.84089661 16.65101624 C58.84900277 19.72692615 58.83539124 22.80230939 58.82080078 25.87818909 C58.82028218 28.01523335 58.82079987 30.1522781 58.8223114 32.2893219 C58.82222167 36.76823548 58.8117912 41.24696909 58.79370117 45.72584534 C58.77101413 51.46943212 58.77046991 57.21275587 58.77721882 62.95637512 C58.78055896 67.36926108 58.77392783 71.78208698 58.76408958 76.19496155 C58.76023808 78.31287827 58.75908916 80.43080168 58.76067543 82.54872131 C58.76104594 85.50763191 58.74842975 88.46620426 58.73217773 91.42506409 C58.73465515 92.3020697 58.73713257 93.17907532 58.73968506 94.08265686 C58.73260025 94.89013367 58.72551544 95.69761047 58.71821594 96.52955627 C58.71513664 97.57813812 58.71513664 97.57813812 58.71199512 98.64790344 C58.40857917 101.00903466 57.69945257 102.60479722 56.45751953 104.62818909 C53.89066799 105.91161486 52.02750887 105.77627016 49.15332031 105.80519104 C48.04522003 105.81802628 46.93711975 105.83086151 45.79544067 105.84408569 C44.59337982 105.85147263 43.39131897 105.85885956 42.15283203 105.86647034 C40.9221701 105.87454208 39.69150818 105.88261383 38.42355347 105.89093018 C35.815912 105.9047794 33.20825234 105.91549779 30.60058594 105.9233551 C27.92522472 105.93222469 25.25038131 105.95311856 22.57519531 105.98487854 C18.72591367 106.02738449 14.87731871 106.04370114 11.02783203 106.05397034 C9.23081345 106.08023247 9.23081345 106.08023247 7.39749146 106.10702515 C5.72588455 106.1026368 5.72588455 106.1026368 4.02050781 106.09815979 C3.04058868 106.10402603 2.06066956 106.10989227 1.05105591 106.11593628 C-1.54248047 105.62818909 -1.54248047 105.62818909 -3.85881042 104.17301941 C-6.38506754 100.35463722 -6.09373275 96.92707877 -6.04418945 92.44093323 C-6.04959244 91.51203781 -6.05499542 90.5831424 -6.06056213 89.62609863 C-6.07307144 86.55485694 -6.05654222 83.48454872 -6.03857422 80.41334534 C-6.03872917 78.2786962 -6.04021747 76.14404677 -6.04298401 74.00939941 C-6.04436904 69.53462799 -6.03179336 65.06017667 -6.0090332 60.58546448 C-5.9806657 54.85085667 -5.98337997 49.11678155 -5.99612331 43.38213444 C-6.00308058 38.97347469 -5.99529032 34.56493792 -5.98286629 30.15629387 C-5.97835106 28.04199635 -5.97801561 25.92768563 -5.98193169 23.81338692 C-5.98484387 20.85692954 -5.96833552 17.90120432 -5.9465332 14.94483948 C-5.95103485 14.07142914 -5.9555365 13.1980188 -5.96017456 12.29814148 C-5.82721051 1.43977116 -5.82721051 1.43977116 0 0 Z " fill="#FDFEFE" transform="translate(145.54248046875,338.37181091308594)"/>
<path d="M0 0 C1.13134872 -0.01283524 2.26269745 -0.02567047 3.42832947 -0.03889465 C4.65540115 -0.04628159 5.88247284 -0.05366852 7.14672852 -0.0612793 C9.02957298 -0.07338692 9.02957298 -0.07338692 10.95045471 -0.08573914 C13.60942283 -0.09958798 16.26826658 -0.11060273 18.92724609 -0.11816406 C22.3350355 -0.12924283 25.74217447 -0.16366091 29.14973354 -0.20333576 C32.39866765 -0.23573824 35.64765743 -0.24027473 38.89672852 -0.2487793 C40.7342997 -0.27504143 40.7342997 -0.27504143 42.60899353 -0.30183411 C44.31074486 -0.29744576 44.31074486 -0.29744576 46.046875 -0.29296875 C47.54673195 -0.30176811 47.54673195 -0.30176811 49.07688904 -0.31074524 C51.58813477 0.17700195 51.58813477 0.17700195 53.41119385 1.63117981 C55.20337793 5.50782464 54.99724716 9.15810825 54.96044922 13.38012695 C54.96409988 14.31062866 54.96775055 15.24113037 54.97151184 16.1998291 C54.97961801 19.27573902 54.96600647 22.35112225 54.95141602 25.42700195 C54.95089742 27.56404622 54.95141511 29.70109097 54.95292664 31.83813477 C54.95283691 36.31704835 54.94240644 40.79578195 54.92431641 45.2746582 C54.90162936 51.01824498 54.90108514 56.76156874 54.90783405 62.50518799 C54.91117419 66.91807394 54.90454306 71.33089984 54.89470482 75.74377441 C54.89085332 77.86169114 54.8897044 79.97961455 54.89129066 82.09753418 C54.89166117 85.05644478 54.87904499 88.01501712 54.86279297 90.97387695 C54.86527039 91.85088257 54.8677478 92.72788818 54.87030029 93.63146973 C54.86321548 94.43894653 54.85613068 95.24642334 54.84883118 96.07836914 C54.84575187 97.12695099 54.84575187 97.12695099 54.84261036 98.19671631 C54.5391944 100.55784753 53.8300678 102.15361008 52.58813477 104.17700195 C50.01463787 105.4637504 48.14970217 105.3180849 45.26806641 105.33813477 C44.15673843 105.34774231 43.04541046 105.35734985 41.90040588 105.36724854 C40.69520798 105.37149841 39.49001007 105.37574829 38.24829102 105.38012695 C37.01525742 105.38582703 35.78222382 105.3915271 34.51182556 105.3973999 C31.89998231 105.40685925 29.28812708 105.41338758 26.67626953 105.41723633 C23.99416593 105.42163415 21.31238168 105.43557352 18.63037109 105.45825195 C14.77374431 105.48860976 10.91752374 105.49927252 7.06079102 105.50512695 C5.85761734 105.51747375 4.65444366 105.52982056 3.41481018 105.5425415 C2.30033005 105.53954041 1.18584991 105.53653931 0.03759766 105.53344727 C-0.94454208 105.5370929 -1.92668182 105.54073853 -2.93858337 105.54449463 C-5.41186523 105.17700195 -5.41186523 105.17700195 -7.18995667 103.84222412 C-10.17653969 99.77209614 -9.55965591 95.07702121 -9.55712891 90.27099609 C-9.56048752 89.36014755 -9.56384613 88.44929901 -9.56730652 87.510849 C-9.57681918 84.49460493 -9.57875973 81.47841635 -9.57983398 78.4621582 C-9.58304614 76.36852495 -9.58641018 74.27489193 -9.58992004 72.18125916 C-9.59591196 67.79059326 -9.59775986 63.39994704 -9.59716797 59.00927734 C-9.5970663 53.37890803 -9.61072363 47.74866468 -9.62794018 42.11832523 C-9.63904952 37.79381224 -9.64108751 33.46932981 -9.64055824 29.144804 C-9.64173977 27.06874596 -9.64617119 24.99268717 -9.65389061 22.91664314 C-9.66366974 20.01513931 -9.66082073 17.11391045 -9.65478516 14.21240234 C-9.66040466 13.35252716 -9.66602417 12.49265198 -9.67181396 11.60671997 C-9.66761948 10.81462631 -9.66342499 10.02253265 -9.65910339 9.20643616 C-9.65964816 8.52083146 -9.66019293 7.83522676 -9.6607542 7.12884617 C-9.36127721 4.78027907 -8.64543381 3.19005095 -7.41186523 1.17700195 C-4.81886793 -0.1194967 -2.90374968 0.02861061 0 0 Z " fill="#FDFEFE" transform="translate(65.411865234375,338.822998046875)"/>
<path d="M0 0 C75.9 0 151.8 0 230 0 C230 9.57 230 19.14 230 29 C157.73 29 85.46 29 11 29 C9.02 23.39 7.04 17.78 5 12 C3.00732639 7.85866543 3.00732639 7.85866543 0.8828125 3.78515625 C0 2 0 2 0 0 Z " fill="#C6CAD5" transform="translate(253,46)"/>
<path d="M0 0 C18.15 0 36.3 0 55 0 C55 30.36 55 60.72 55 92 C36.85 92 18.7 92 0 92 C0 61.64 0 31.28 0 0 Z " fill="#A0D9F2" transform="translate(388,383)"/>
<path d="M0 0 C18.15 0 36.3 0 55 0 C55 30.36 55 60.72 55 92 C36.85 92 18.7 92 0 92 C0 61.64 0 31.28 0 0 Z " fill="#A0D9F2" transform="translate(321,383)"/>
<path d="M0 0 C1.22968002 -0.00058411 2.45936005 -0.00116821 3.7263031 -0.00177002 C7.08992329 0.00053622 10.45255658 0.02056912 13.81600213 0.04852581 C17.33402605 0.07356316 20.8520637 0.07588329 24.37016296 0.08062744 C31.02832469 0.09305044 37.6862231 0.12586263 44.34426898 0.1660254 C51.92582375 0.21076437 59.50739121 0.23273545 67.08904517 0.25280714 C82.68150477 0.29459607 98.2737018 0.36493467 113.8659668 0.45410156 C110.57485521 3.1246761 107.31564706 5.4657404 103.6784668 7.64160156 C94.18897313 13.628262 83.52828032 22.33283094 77.86131287 32.20410538 C76.67268994 34.20312275 75.52743742 35.82159709 73.8659668 37.45410156 C70.72963653 38.17050469 68.61509932 38.39778592 65.4831543 38.328125 C64.65164856 38.33717865 63.82014282 38.3462323 62.96343994 38.3555603 C60.22148836 38.37613395 57.4827626 38.34608064 54.7409668 38.31347656 C52.83194888 38.31311275 50.92292917 38.31512055 49.01391602 38.31939697 C45.01559414 38.32069108 41.01837145 38.29772699 37.02026367 38.25683594 C31.89851546 38.2057609 26.77849692 38.20795686 21.65658569 38.2274437 C17.71534222 38.2377468 13.7744955 38.22331169 9.83331299 38.20105743 C7.94510664 38.1926998 6.05685694 38.19120116 4.16864014 38.19670868 C1.52781428 38.19999544 -1.11070865 38.17083746 -3.7512207 38.1328125 C-4.91871857 38.1432811 -4.91871857 38.1432811 -6.10980225 38.15396118 C-10.10115194 38.06020465 -11.94427586 37.60358426 -15.11752319 35.10383606 C-17.60302204 31.83784084 -17.77761078 30.05472654 -17.7980957 25.98144531 C-17.80454102 24.75232422 -17.81098633 23.52320312 -17.81762695 22.25683594 C-17.79829102 20.98130859 -17.77895508 19.70578125 -17.7590332 18.39160156 C-17.77836914 17.11220703 -17.79770508 15.8328125 -17.81762695 14.51464844 C-17.81118164 13.28681641 -17.80473633 12.05898438 -17.7980957 10.79394531 C-17.79245605 9.67366943 -17.78681641 8.55339355 -17.78100586 7.39916992 C-17.1340332 4.45410156 -17.1340332 4.45410156 -15.35197449 2.29841614 C-10.38246143 -0.54978542 -5.63026898 -0.06978824 0 0 Z " fill="#535D67" transform="translate(17.134033203125,8.5458984375)"/>
<path d="M0 0 C40.26 0 80.52 0 122 0 C122 6.27 122 12.54 122 19 C81.74 19 41.48 19 0 19 C0 12.73 0 6.46 0 0 Z " fill="#A0D9F2" transform="translate(321,351)"/>
<path d="M0 0 C0.33 0 0.66 0 1 0 C1.99455995 24.97450553 -8.74807308 47.45883628 -25.375 65.58984375 C-40.60399212 81.41371837 -63.49208255 93.61965307 -85.78515625 94.16796875 C-115.33189176 94.42741983 -139.38562381 86.26612273 -161.30078125 65.8203125 C-175.44948715 51.03686002 -187.31592267 28.90565876 -187.0625 8.125 C-187.05347656 7.15820312 -187.04445313 6.19140625 -187.03515625 5.1953125 C-187.02355469 4.47085938 -187.01195312 3.74640625 -187 3 C-186.67 3 -186.34 3 -186 3 C-185.76925781 4.01578125 -185.53851563 5.0315625 -185.30078125 6.078125 C-179.00034773 33.00443031 -165.33307984 54.89142573 -141.66796875 69.80859375 C-121.09041007 82.32921818 -96.14327086 85.18053142 -72.625 80.8125 C-47.67300813 74.66696951 -26.81693172 60.06405885 -12.9140625 38.37890625 C-6.06051956 26.28030494 -2.55860673 13.58763202 0 0 Z " fill="#C7CBD6" transform="translate(265,105)"/>
<path d="M0 0 C12.54 0 25.08 0 38 0 C38 16.83 38 33.66 38 51 C25.46 51 12.92 51 0 51 C0 34.17 0 17.34 0 0 Z " fill="#A0D9F2" transform="translate(237,381)"/>
<path d="M0 0 C12.54 0 25.08 0 38 0 C38 16.83 38 33.66 38 51 C25.46 51 12.92 51 0 51 C0 34.17 0 17.34 0 0 Z " fill="#A0D9F2" transform="translate(405,256)"/>
<path d="M0 0 C12.54 0 25.08 0 38 0 C38 16.83 38 33.66 38 51 C25.46 51 12.92 51 0 51 C0 34.17 0 17.34 0 0 Z " fill="#A0D9F2" transform="translate(321,256)"/>
<path d="M0 0 C12.54 0 25.08 0 38 0 C38 16.83 38 33.66 38 51 C25.46 51 12.92 51 0 51 C0 34.17 0 17.34 0 0 Z " fill="#A0D9F2" transform="translate(237,256)"/>
<path d="M0 0 C12.54 0 25.08 0 38 0 C38 16.83 38 33.66 38 51 C25.46 51 12.92 51 0 51 C0 34.17 0 17.34 0 0 Z " fill="#A0D9F2" transform="translate(153,256)"/>
<path d="M0 0 C12.54 0 25.08 0 38 0 C38 16.83 38 33.66 38 51 C25.46 51 12.92 51 0 51 C0 34.17 0 17.34 0 0 Z " fill="#A0D9F2" transform="translate(69,256)"/>
<path d="M0 0 C12.54 0 25.08 0 38 0 C38 16.5 38 33 38 50 C25.46 50 12.92 50 0 50 C0 33.5 0 17 0 0 Z " fill="#A0D9F2" transform="translate(153,381)"/>
<path d="M0 0 C12.54 0 25.08 0 38 0 C38 16.5 38 33 38 50 C25.46 50 12.92 50 0 50 C0 33.5 0 17 0 0 Z " fill="#A0D9F2" transform="translate(69,381)"/>
<path d="M0 0 C12.54 0 25.08 0 38 0 C38 16.5 38 33 38 50 C25.46 50 12.92 50 0 50 C0 33.5 0 17 0 0 Z " fill="#A0D9F2" transform="translate(405,132)"/>
<path d="M0 0 C12.54 0 25.08 0 38 0 C38 16.5 38 33 38 50 C25.46 50 12.92 50 0 50 C0 33.5 0 17 0 0 Z " fill="#A0D9F2" transform="translate(321,132)"/>
<path d="M0 0 C20.46 0 40.92 0 62 0 C59.03 6.93 56.06 13.86 53 21 C52.34 23.64 51.68 26.28 51 29 C34.17 29 17.34 29 0 29 C0 19.43 0 9.86 0 0 Z " fill="#C6CAD5" transform="translate(29,46)"/>
<path d="M0 0 C12.54 0 25.08 0 38 0 C38 5.61 38 11.22 38 17 C25.46 17 12.92 17 0 17 C0 11.39 0 5.78 0 0 Z " fill="#A0D9F2" transform="translate(237,351)"/>
<path d="M0 0 C12.54 0 25.08 0 38 0 C38 5.61 38 11.22 38 17 C25.46 17 12.92 17 0 17 C0 11.39 0 5.78 0 0 Z " fill="#A0D9F2" transform="translate(153,351)"/>
<path d="M0 0 C12.54 0 25.08 0 38 0 C38 5.61 38 11.22 38 17 C25.46 17 12.92 17 0 17 C0 11.39 0 5.78 0 0 Z " fill="#A0D9F2" transform="translate(69,351)"/>
<path d="M0 0 C12.54 0 25.08 0 38 0 C38 5.61 38 11.22 38 17 C25.46 17 12.92 17 0 17 C0 11.39 0 5.78 0 0 Z " fill="#A1D9F2" transform="translate(405,227)"/>
<path d="M0 0 C12.54 0 25.08 0 38 0 C38 5.61 38 11.22 38 17 C25.46 17 12.92 17 0 17 C0 11.39 0 5.78 0 0 Z " fill="#A1D9F2" transform="translate(321,227)"/>
<path d="M0 0 C12.54 0 25.08 0 38 0 C38 5.61 38 11.22 38 17 C25.46 17 12.92 17 0 17 C0 11.39 0 5.78 0 0 Z " fill="#A1D9F2" transform="translate(237,227)"/>
<path d="M0 0 C12.54 0 25.08 0 38 0 C38 5.61 38 11.22 38 17 C25.46 17 12.92 17 0 17 C0 11.39 0 5.78 0 0 Z " fill="#A1D9F2" transform="translate(153,227)"/>
<path d="M0 0 C12.54 0 25.08 0 38 0 C38 5.61 38 11.22 38 17 C25.46 17 12.92 17 0 17 C0 11.39 0 5.78 0 0 Z " fill="#A1D9F2" transform="translate(69,227)"/>
<path d="M0 0 C12.54 0 25.08 0 38 0 C38 5.61 38 11.22 38 17 C25.46 17 12.92 17 0 17 C0 11.39 0 5.78 0 0 Z " fill="#A0D9F2" transform="translate(405,102)"/>
<path d="M0 0 C12.54 0 25.08 0 38 0 C38 5.61 38 11.22 38 17 C25.46 17 12.92 17 0 17 C0 11.39 0 5.78 0 0 Z " fill="#A0D9F2" transform="translate(321,102)"/>
<path d="M0 0 C0.33 0 0.66 0 1 0 C1.09688221 5.44693314 1.12862175 10.63904667 0 16 C-0.99 16.33 -1.98 16.66 -3 17 C-2.68853528 15.10399631 -2.37578283 13.20820413 -2.0625 11.3125 C-1.88847656 10.25675781 -1.71445312 9.20101562 -1.53515625 8.11328125 C-1.06832879 5.39750396 -0.55577384 2.69875765 0 0 Z " fill="#D0D3DC" transform="translate(265,105)"/>
</svg>
