<?xml version="1.0" encoding="UTF-8"?>
<svg version="1.1" xmlns="http://www.w3.org/2000/svg" width="512" height="512">
<path d="M0 0 C7.52735904 4.48853632 11.93185993 10.28063521 15.421875 18.2578125 C16.28588231 22.02802621 16.15296605 25.39009771 16.109375 29.2578125 C17.22908691 29.23686523 18.34879883 29.21591797 19.50244141 29.19433594 C23.67320877 29.12170824 27.84392068 29.07593039 32.01513672 29.03808594 C33.81731581 29.01802217 35.61943021 28.99076437 37.42138672 28.95605469 C40.01806636 28.90730421 42.61388229 28.88479168 45.2109375 28.8671875 C46.0111734 28.84654236 46.8114093 28.82589722 47.63589478 28.80462646 C52.94163741 28.80251819 55.8944475 29.75344445 60.109375 33.2578125 C63.59959341 37.48281373 64.3043737 39.87284851 64.109375 45.2578125 C64.98919037 45.24893005 65.86900574 45.24004761 66.77548218 45.230896 C75.10165069 45.1504629 83.42768711 45.08970287 91.75415611 45.05056381 C96.03402777 45.02976491 100.31357609 45.0015898 104.59326172 44.95605469 C108.73003911 44.91231983 112.86650718 44.88861763 117.00349808 44.87830353 C118.57503752 44.87096138 120.14656167 44.85662484 121.71796799 44.83489227 C133.04053827 44.68465057 142.90546916 45.45475421 151.578125 53.5546875 C158.80192154 61.58931835 160.41377361 69.58792037 160.3046875 80.125 C160.30044266 81.67708664 160.30044266 81.67708664 160.29611206 83.26052856 C160.28495548 86.55140964 160.25985897 89.84201428 160.234375 93.1328125 C160.22433937 95.36978772 160.21521453 97.60676723 160.20703125 99.84375 C160.18503095 105.3151978 160.15159838 110.78648539 160.109375 116.2578125 C160.7174147 116.45393631 161.32545441 116.65006012 161.95191956 116.85212708 C162.75483932 117.11466782 163.55775909 117.37720856 164.38500977 117.64770508 C165.57550682 118.03470329 165.57550682 118.03470329 166.79005432 118.42951965 C176.57599985 121.92434844 185.3400667 128.51925821 193.109375 135.2578125 C193.91761719 135.92167969 194.72585938 136.58554688 195.55859375 137.26953125 C212.22833076 151.4270316 222.98642515 170.47039774 229.109375 191.2578125 C229.4496875 192.36382812 229.79 193.46984375 230.140625 194.609375 C237.1844418 222.45853957 232.09469182 253.36962623 217.9765625 278.10546875 C205.02721668 299.60582794 185.69108614 317.23588258 162.109375 326.2578125 C161.449375 326.2578125 160.789375 326.2578125 160.109375 326.2578125 C160.11306217 326.90311857 160.11674934 327.54842464 160.12054825 328.21328545 C160.20905788 343.94746421 160.27516144 359.68155585 160.31662369 375.41592216 C160.33720979 383.02509401 160.36525422 390.63409921 160.41113281 398.24316406 C160.45112227 404.87869132 160.47683652 411.51409783 160.48572898 418.14974225 C160.49092339 421.66019022 160.50304824 425.17029291 160.53229523 428.68062973 C160.56475344 432.60860192 160.56532667 436.53624271 160.56347656 440.46435547 C160.58504822 442.19174202 160.58504822 442.19174202 160.60705566 443.95402527 C160.55860488 453.490977 158.44601246 461.62401381 151.8125 468.7265625 C143.5488804 476.15623884 135.3320668 477.55577945 124.52154541 477.52523804 C123.34741144 477.52976915 122.17327747 477.53430026 120.96356368 477.53896868 C117.71273005 477.54942745 114.46203578 477.55094047 111.2111907 477.54857993 C107.70185359 477.54817128 104.1925493 477.55921557 100.68322754 477.56869507 C93.81056883 477.58529601 86.93794444 477.59080422 80.06526735 477.59191982 C74.47719954 477.5928708 68.88914303 477.59698356 63.3010788 477.60332108 C47.4499704 477.62093158 31.59888907 477.63016033 15.74777082 477.62866013 C14.89353574 477.62858022 14.03930067 477.6285003 13.15917969 477.62841797 C11.87625828 477.62829533 11.87625828 477.62829533 10.56741926 477.62817021 C-3.28972309 477.62735752 -17.14675669 477.64649124 -31.0038676 477.6746947 C-45.24000981 477.70344041 -59.47609901 477.71723405 -73.71227098 477.71550715 C-81.70165745 477.7148438 -89.69092993 477.72031202 -97.68029022 477.74186325 C-104.48344083 477.76009735 -111.28642579 477.76440422 -118.08959028 477.7508444 C-121.55824324 477.7443257 -125.0265786 477.74415723 -128.49520111 477.7615509 C-132.26203717 477.77699578 -136.02804255 477.76769862 -139.79486084 477.75228882 C-140.88223282 477.76257594 -141.96960479 477.77286307 -143.08992743 477.78346193 C-152.39616896 477.69949819 -160.44300855 475.42056277 -167.359375 468.9609375 C-175.01388635 460.44724631 -176.18624201 452.03670122 -176.11767578 440.91845703 C-176.11796783 439.67887741 -176.11825989 438.43929779 -176.11856079 437.16215515 C-176.11740895 433.77615829 -176.10740166 430.39040747 -176.09341288 427.00445414 C-176.08088195 423.46105587 -176.07973316 419.91765407 -176.07736206 416.37423706 C-176.07115422 409.67016284 -176.05475286 402.96615411 -176.03466308 396.26210868 C-176.01228239 388.62729937 -176.0013052 380.99248687 -175.99127221 373.3576529 C-175.97038598 357.65766822 -175.93522359 341.95774882 -175.890625 326.2578125 C-176.4986647 326.06168869 -177.10670441 325.86556488 -177.73316956 325.66349792 C-178.53608932 325.40095718 -179.33900909 325.13841644 -180.16625977 324.86791992 C-181.35675682 324.48092171 -181.35675682 324.48092171 -182.57130432 324.08610535 C-192.35724985 320.59127656 -201.1213167 313.99636679 -208.890625 307.2578125 C-209.69886719 306.59394531 -210.50710937 305.93007813 -211.33984375 305.24609375 C-228.00958076 291.0885934 -238.76767515 272.04522726 -244.890625 251.2578125 C-245.2309375 250.15179688 -245.57125 249.04578125 -245.921875 247.90625 C-252.9656918 220.05708543 -247.87594182 189.14599877 -233.7578125 164.41015625 C-220.80846668 142.90979706 -201.47233614 125.27974242 -177.890625 116.2578125 C-177.230625 116.2578125 -176.570625 116.2578125 -175.890625 116.2578125 C-175.89950745 115.69119904 -175.90838989 115.12458557 -175.9175415 114.540802 C-176.00655951 108.60282559 -176.06658329 102.66504106 -176.11035156 96.7265625 C-176.13037247 94.51522105 -176.15759759 92.30393192 -176.19238281 90.09277344 C-176.24132127 86.90025872 -176.26368967 83.70844854 -176.28125 80.515625 C-176.30189514 79.53917023 -176.32254028 78.56271545 -176.34381104 77.55667114 C-176.34673429 68.45940607 -173.8875385 60.52786635 -167.59375 53.7890625 C-161.4000801 48.22044186 -154.47659006 44.99271764 -146.06884766 45.03076172 C-144.38778427 45.03098831 -144.38778427 45.03098831 -142.67276001 45.03121948 C-140.88181412 45.04670334 -140.88181412 45.04670334 -139.0546875 45.0625 C-137.82019867 45.0653299 -136.58570984 45.06815979 -135.31381226 45.07107544 C-131.38098351 45.08224728 -127.44838463 45.10734686 -123.515625 45.1328125 C-120.84505541 45.14397425 -118.17448799 45.15197131 -115.50390625 45.16015625 C-108.96606775 45.18217685 -102.4283628 45.21562491 -95.890625 45.2578125 C-95.92414063 44.33226562 -95.95765625 43.40671875 -95.9921875 42.453125 C-95.8579306 38.22919629 -94.56221694 36.49184484 -91.890625 33.2578125 C-86.86321501 29.0779316 -83.23870919 28.70603461 -76.9921875 28.8671875 C-76.15722748 28.87284729 -75.32226746 28.87850708 -74.46200562 28.88433838 C-71.81261234 28.90661027 -69.16460484 28.95678727 -66.515625 29.0078125 C-64.71225921 29.02788948 -62.90887208 29.04613815 -61.10546875 29.0625 C-56.69999231 29.10644464 -52.29554306 29.17540649 -47.890625 29.2578125 C-47.91116943 27.36204468 -47.91116943 27.36204468 -47.93212891 25.42797852 C-48.01394109 17.87863854 -44.70184128 11.25833195 -39.59375 5.7890625 C-28.99673947 -3.73852495 -12.95346121 -6.21592266 0 0 Z M-29.265625 20.8828125 C-31.46970393 25.46051489 -31.6877889 29.26333661 -30.890625 34.2578125 C-28.56093569 39.09639798 -25.72921048 41.92812319 -20.890625 44.2578125 C-15.89614911 45.0549764 -12.09332739 44.83689143 -7.515625 42.6328125 C-3.93154787 39.39007605 -1.29527259 36.79305354 -0.5078125 31.859375 C-0.25178581 26.17558256 -0.95435568 22.60842595 -4.890625 18.2578125 C-9.24123845 14.32154318 -12.80839506 13.61897331 -18.4921875 13.875 C-23.42586604 14.66246009 -26.02288855 17.29873537 -29.265625 20.8828125 Z " fill="#5FAA47" transform="translate(263.890625,18.7421875)"/>
<path d="M0 0 C1.22763565 0.00212242 1.22763565 0.00212242 2.48007202 0.00428772 C5.09873075 0.00989335 7.71730454 0.02244677 10.3359375 0.03515625 C12.10937377 0.04017053 13.88281137 0.04473356 15.65625 0.04882812 C20.00784532 0.05986461 24.359377 0.077133 28.7109375 0.09765625 C28.89197021 0.71253906 29.07300293 1.32742187 29.25952148 1.9609375 C29.51032471 2.76917969 29.76112793 3.57742187 30.01953125 4.41015625 C30.26243896 5.21066406 30.50534668 6.01117188 30.75561523 6.8359375 C32.50173793 10.96987071 35.7435002 13.1139376 39.7109375 15.09765625 C41.50917532 15.19742273 43.31112632 15.23274426 45.11212158 15.23809814 C46.83234779 15.24666336 46.83234779 15.24666336 48.58732605 15.25540161 C49.85176041 15.25651947 51.11619476 15.25763733 52.41894531 15.25878906 C53.75924313 15.26341662 55.09953963 15.26844119 56.43983459 15.27383423 C60.08669643 15.28696848 63.73353984 15.29340547 67.38042164 15.29784489 C69.65894888 15.30077467 71.93747108 15.30487936 74.21599579 15.30934906 C81.34511424 15.32302826 88.47422117 15.33269218 95.60335183 15.33655095 C103.8322179 15.34102936 112.06091767 15.35856527 120.28973317 15.38755155 C126.64990302 15.40917725 133.01002612 15.41925575 139.37023234 15.42059207 C143.1688353 15.4216397 146.96728202 15.42753813 150.76584625 15.44541168 C154.34127393 15.46190726 157.91642821 15.46404081 161.49188042 15.45527267 C163.42541874 15.45413677 165.35894804 15.46784372 167.29243469 15.48202515 C174.52532272 15.44724303 179.6184539 15.19013985 184.9609375 9.84765625 C186.97156489 6.68809892 187.74728996 3.69865497 188.7109375 0.09765625 C193.72799471 0.02323619 198.74472722 -0.03107283 203.76220703 -0.06713867 C205.46734213 -0.08218113 207.17243882 -0.10262028 208.87744141 -0.12866211 C211.33505762 -0.16524659 213.79216019 -0.18211548 216.25 -0.1953125 C217.00648834 -0.21079636 217.76297668 -0.22628021 218.54238892 -0.24223328 C224.0004032 -0.24395028 228.21972081 0.77212618 232.35546875 4.6328125 C235.50188442 8.74735606 236.83954139 10.74941118 236.80859375 15.88671875 C236.80537109 16.82773438 236.80214844 17.76875 236.79882812 18.73828125 C236.79044922 19.723125 236.78207031 20.70796875 236.7734375 21.72265625 C236.76892578 22.71523437 236.76441406 23.7078125 236.75976562 24.73046875 C236.74795895 27.18625785 236.7314915 29.64192729 236.7109375 32.09765625 C235.41542969 32.30519531 234.11992187 32.51273438 232.78515625 32.7265625 C201.64495218 38.00366276 173.62087218 51.68862187 154.5859375 77.72265625 C137.40248257 102.09094745 130.4176687 130.88950842 134.1796875 160.47265625 C134.83609669 164.0985356 135.68437972 167.55914269 136.7109375 171.09765625 C136.90429688 171.78698242 137.09765625 172.47630859 137.296875 173.18652344 C141.82699151 189.04892213 148.64331896 203.72670811 159.7109375 216.09765625 C160.77441406 217.35642578 160.77441406 217.35642578 161.859375 218.640625 C179.49954773 239.09703583 204.66379476 250.84608997 230.99291992 255.16064453 C232.06595871 255.3371756 233.1389975 255.51370667 234.24455261 255.69558716 C235.05845963 255.82826996 235.87236664 255.96095276 236.7109375 256.09765625 C236.78045754 269.03237807 236.83375911 281.96705542 236.86637402 294.90192604 C236.88202777 300.90815456 236.90326107 306.91425522 236.93725586 312.92041016 C236.96985918 318.71701692 236.9877927 324.51350072 236.99556923 330.31019211 C237.00111095 332.52137564 237.01193254 334.73255246 237.02812767 336.94368362 C237.04991449 340.04154234 237.05290385 343.13889337 237.05151367 346.23681641 C237.0622995 347.1503186 237.07308533 348.0638208 237.084198 349.00500488 C237.0558863 354.83804399 236.30401546 359.25472442 232.2109375 363.7421875 C228.08637158 366.95376357 225.32697625 368.22537142 220.14770508 368.21118164 C219.22697708 368.21110611 218.30624908 368.21103058 217.35762024 368.21095276 C216.36691025 368.20579147 215.37620026 368.20063019 214.35546875 368.1953125 C212.83030891 368.19319008 212.83030891 368.19319008 211.27433777 368.19102478 C208.02400786 368.18542332 204.77374662 368.17287057 201.5234375 368.16015625 C199.32096454 368.15514144 197.11849049 368.1505785 194.91601562 368.14648438 C189.51429946 368.13545342 184.11262338 368.11871387 178.7109375 368.09765625 C179.25508301 367.09387939 179.79922852 366.09010254 180.35986328 365.0559082 C181.08381922 363.71183766 181.80760576 362.36767588 182.53125 361.0234375 C182.88872314 360.36508911 183.24619629 359.70674072 183.61450195 359.02844238 C193.6670277 340.31093884 196.91783573 320.05261479 191.68359375 299.26171875 C184.65191059 276.3875687 171.06518136 259.57634843 149.9609375 248.34765625 C132.3282402 239.83499109 109.64341107 237.07387068 90.7109375 243.22265625 C88.35292525 244.11854991 86.01599833 245.07318477 83.7109375 246.09765625 C82.61910156 246.566875 81.52726562 247.03609375 80.40234375 247.51953125 C73.79496261 250.58812774 68.25072557 254.40133215 62.7109375 259.09765625 C62.04578125 259.60683594 61.380625 260.11601562 60.6953125 260.640625 C47.595533 271.08434685 37.74435382 289.61831073 35.7109375 306.09765625 C35.40107806 310.66182143 35.30269185 315.21120721 35.2734375 319.78515625 C35.26328613 320.9131665 35.25313477 322.04117676 35.24267578 323.20336914 C35.34951775 333.50760013 37.42482108 342.87203613 41.5859375 352.28515625 C42.29363281 353.91517578 42.29363281 353.91517578 43.015625 355.578125 C44.37077881 358.39147426 45.79407869 361.09516269 47.31689453 363.81762695 C47.99004196 365.0229583 47.99004196 365.0229583 48.67678833 366.25263977 C49.01805756 366.86149521 49.35932678 367.47035065 49.7109375 368.09765625 C42.25241308 368.19053372 34.79401433 368.26151056 27.33502769 368.30490494 C23.87109251 368.32573735 20.40755437 368.35397364 16.94384766 368.39941406 C12.95740591 368.4513821 8.97112225 368.47063758 4.984375 368.48828125 C3.74666351 368.50892639 2.50895203 368.52957153 1.23373413 368.55084229 C-9.45921565 368.55362548 -9.45921565 368.55362548 -14.2890625 364.09765625 C-17.85188591 360.14966274 -19.4159844 357.2544067 -19.40931702 351.94050598 C-19.41069168 351.09496658 -19.41206635 350.24942719 -19.41348267 349.37826538 C-19.40988739 348.45397736 -19.40629211 347.52968933 -19.40258789 346.57739258 C-19.40273392 345.60159744 -19.40287994 344.62580231 -19.4030304 343.62043762 C-19.40233288 340.39016509 -19.39454795 337.15994998 -19.38671875 333.9296875 C-19.384854 331.6919508 -19.38343037 329.45421369 -19.38243103 327.21647644 C-19.37861034 321.32279333 -19.36878385 315.42913481 -19.35772705 309.53546143 C-19.34750331 303.52299329 -19.34293134 297.51052119 -19.33789062 291.49804688 C-19.32716121 279.69790586 -19.31009013 267.8977831 -19.2890625 256.09765625 C-18.72313385 256.073582 -18.1572052 256.04950775 -17.5741272 256.02470398 C-14.97108169 255.91147394 -12.3683742 255.79171594 -9.765625 255.671875 C-8.43059937 255.61525696 -8.43059937 255.61525696 -7.06860352 255.55749512 C17.33621856 254.40949408 42.36736249 245.46674923 60.7109375 229.09765625 C61.5153125 228.43507813 62.3196875 227.7725 63.1484375 227.08984375 C81.25331081 211.75727917 91.84678288 190.78700217 97.7109375 168.09765625 C97.97648437 167.1025 98.24203125 166.10734375 98.515625 165.08203125 C99.99456675 158.15329044 99.90626181 151.09100001 99.9609375 144.03515625 C99.97519775 142.52659058 99.97519775 142.52659058 99.98974609 140.98754883 C99.9595865 134.15304914 99.14270539 127.77370569 97.7109375 121.09765625 C97.47375 119.90398437 97.2365625 118.7103125 96.9921875 117.48046875 C93.10782988 101.28269749 85.6356853 85.70594977 74.7109375 73.09765625 C73.86917969 72.09605469 73.02742188 71.09445313 72.16015625 70.0625 C54.47614737 49.5267543 27.82665296 35.54538203 0.7109375 33.09765625 C-5.95073891 32.6445081 -12.61707341 32.34818548 -19.2890625 32.09765625 C-19.40595876 28.72295121 -19.47654184 25.34877195 -19.5390625 21.97265625 C-19.57257813 21.02132812 -19.60609375 20.07 -19.640625 19.08984375 C-19.7222964 13.20950273 -19.31670232 9.71845758 -15.2890625 5.09765625 C-10.0271549 0.46216622 -6.86256373 -0.04432957 0 0 Z " fill="#D6E5EF" transform="translate(139.2890625,95.90234375)"/>
<path d="M0 0 C20.56924219 17.47838531 33.82273483 40.05976638 36.17675781 67.26074219 C37.71646139 92.38629606 30.92762394 116.68382412 14.671875 136.21875 C12.4754805 138.69529686 10.22292573 141.10183823 7.9375 143.49609375 C7.39867187 144.1096875 6.85984375 144.72328125 6.3046875 145.35546875 C-6.07846249 158.92092954 -26.20013209 167.79813193 -44.0625 170.49609375 C-44.784375 170.625 -45.50625 170.75390625 -46.25 170.88671875 C-71.53496233 174.89017112 -96.19712368 167.88897156 -116.90625 153.5234375 C-119.39438378 151.6061572 -121.73613106 149.60641516 -124.0625 147.49609375 C-124.95324219 146.69816406 -125.84398438 145.90023437 -126.76171875 145.078125 C-144.34511683 128.47566963 -155.32824851 105.17522765 -156.30078125 80.88671875 C-156.89114242 53.7009842 -149.29901845 30.05555086 -130.47265625 9.9375 C-95.39786666 -25.59206806 -40.24814144 -31.73822855 0 0 Z " fill="#F9A019" transform="translate(188.0625,164.50390625)"/>
<path d="M0 0 C1.68106339 0.00022659 1.68106339 0.00022659 3.39608765 0.00045776 C5.18703354 0.01594162 5.18703354 0.01594162 7.01416016 0.03173828 C8.24864899 0.03456818 9.48313782 0.03739807 10.7550354 0.04031372 C14.68786415 0.05148556 18.62046303 0.07658514 22.55322266 0.10205078 C25.22379224 0.11321253 27.89435967 0.12120959 30.56494141 0.12939453 C37.10286108 0.14971125 43.64028532 0.18886685 50.17822266 0.22705078 C50.17822266 10.78705078 50.17822266 21.34705078 50.17822266 32.22705078 C47.57689453 32.25283203 44.97556641 32.27861328 42.29541016 32.30517578 C39.76340118 32.34363845 37.23159294 32.3887849 34.69970703 32.43457031 C32.94622454 32.46271662 31.19261666 32.48396263 29.43896484 32.49804688 C26.91129667 32.51956505 24.38512582 32.5662578 21.85791016 32.61767578 C20.69036697 32.61951874 20.69036697 32.61951874 19.49923706 32.62139893 C14.29127996 32.76011531 11.33653169 33.83628557 7.17822266 37.22705078 C2.46791058 42.42736176 2.52784619 47.41821708 2.42822266 54.10205078 C2.38375 55.56384766 2.38375 55.56384766 2.33837891 57.05517578 C2.26806402 59.44588205 2.21518032 61.83563512 2.17822266 64.22705078 C4.0828125 64.17484375 4.0828125 64.17484375 6.02587891 64.12158203 C33.55430807 63.58939799 61.33056604 71.58339253 82.17822266 90.22705078 C82.99419922 90.91283203 83.81017578 91.59861328 84.65087891 92.30517578 C95.6593501 101.76531486 103.55875586 112.45991505 110.17822266 125.22705078 C110.72349609 126.26474609 111.26876953 127.30244141 111.83056641 128.37158203 C123.03479868 151.03663206 126.12000838 178.82562216 119.17822266 203.22705078 C118.88818359 204.26539063 118.88818359 204.26539063 118.59228516 205.32470703 C114.06087407 221.18464583 107.24125982 235.85617395 96.17822266 248.22705078 C95.49244141 249.04302734 94.80666016 249.85900391 94.10009766 250.69970703 C76.3866106 271.31234395 49.39303783 285.70083412 22.17822266 288.22705078 C18.71004493 288.3134995 15.24484693 288.29814847 11.77587891 288.27392578 C10.85101685 288.27054199 9.92615479 288.2671582 8.9732666 288.26367188 C6.70821343 288.25489543 4.44323776 288.2425994 2.17822266 288.22705078 C2.23944106 301.16194751 2.31655292 314.0966426 2.41393757 327.03132057 C2.45865857 333.03746829 2.4979111 339.0435479 2.5246582 345.04980469 C2.5506736 350.84653996 2.59106403 356.64301339 2.64140892 362.43958664 C2.65808947 364.65071734 2.66959633 366.86189334 2.67583656 369.07307816 C2.68546447 372.1710681 2.71350903 375.26838634 2.74584961 378.36621094 C2.74441452 379.27971313 2.74297943 380.19321533 2.74150085 381.13439941 C2.81684675 386.24030951 3.32719821 389.81342233 6.17822266 394.22705078 C10.53461479 398.15842905 12.87810423 399.35709028 18.6784668 399.27368164 C19.83049088 399.26134995 20.98251495 399.24901825 22.16944885 399.23631287 C23.42144577 399.22165482 24.67344269 399.20699677 25.96337891 399.19189453 C29.29364757 399.18428871 32.62383833 399.18207819 35.95411015 399.18221188 C39.43736135 399.17922268 42.91881713 399.15873669 46.40161133 399.1003418 C49.1177444 399.05565374 51.83148125 399.03771265 54.54795837 399.04969788 C57.10355221 399.06092213 59.65965314 399.03512203 62.21437073 398.9672699 C67.32366001 399.03706145 70.79327109 399.11496154 74.86691284 402.38601685 C77.24633789 405.04174805 77.24633789 405.04174805 79.23997498 407.67750549 C88.68343719 420.09931042 106.95421566 428.23788692 121.98681641 430.68408203 C124.04450235 430.92484092 126.1112445 431.08691667 128.17822266 431.22705078 C128.17822266 431.55705078 128.17822266 431.88705078 128.17822266 432.22705078 C110.87953815 432.32065937 93.58093315 432.39111067 76.28205299 432.43429947 C68.24914691 432.4548894 60.21639856 432.4829413 52.18359375 432.52880859 C45.17890257 432.56878616 38.17432569 432.59450952 31.1695236 432.60340476 C27.46346401 432.60860115 23.75773129 432.62073898 20.05177689 432.64997101 C15.90579223 432.68240604 11.76036908 432.68300323 7.61425781 432.68115234 C5.78868851 432.702724 5.78868851 432.702724 3.92623901 432.72473145 C-5.80582402 432.67784111 -14.02969718 430.71151716 -21.29052734 423.93017578 C-28.94503869 415.41648459 -30.11739435 407.0059395 -30.04882812 395.88769531 C-30.04912018 394.64811569 -30.04941223 393.40853607 -30.04971313 392.13139343 C-30.0485613 388.74539657 -30.038554 385.35964576 -30.02456522 381.97369242 C-30.01203429 378.43029415 -30.0108855 374.88689235 -30.0085144 371.34347534 C-30.00230656 364.63940112 -29.9859052 357.93539239 -29.96581542 351.23134696 C-29.94343473 343.59653765 -29.93245754 335.96172515 -29.92242455 328.32689118 C-29.90153833 312.6269065 -29.86637593 296.9269871 -29.82177734 281.22705078 C-30.42981705 281.03092697 -31.03785675 280.83480316 -31.6643219 280.63273621 C-32.46724167 280.37019547 -33.27016144 280.10765472 -34.09741211 279.8371582 C-35.28790916 279.45015999 -35.28790916 279.45015999 -36.50245667 279.05534363 C-46.28840219 275.56051484 -55.05246905 268.96560507 -62.82177734 262.22705078 C-63.63001953 261.56318359 -64.43826172 260.89931641 -65.27099609 260.21533203 C-81.94073311 246.05783168 -92.69882749 227.01446554 -98.82177734 206.22705078 C-99.16208984 205.12103516 -99.50240234 204.01501953 -99.85302734 202.87548828 C-106.89684414 175.02632371 -101.80709416 144.11523705 -87.68896484 119.37939453 C-74.73961902 97.87903534 -55.40348849 80.24898071 -31.82177734 71.22705078 C-31.16177734 71.22705078 -30.50177734 71.22705078 -29.82177734 71.22705078 C-29.83065979 70.66043732 -29.83954224 70.09382385 -29.84869385 69.51004028 C-29.93771185 63.57206387 -29.99773564 57.63427934 -30.04150391 51.69580078 C-30.06152481 49.48445934 -30.08874994 47.2731702 -30.12353516 45.06201172 C-30.17247361 41.869497 -30.19484202 38.67768682 -30.21240234 35.48486328 C-30.23304749 34.50840851 -30.25369263 33.53195374 -30.27496338 32.52590942 C-30.27788663 23.42864435 -27.81869084 15.49710463 -21.52490234 8.75830078 C-15.33123244 3.18968014 -8.4077424 -0.03804408 0 0 Z M-59.82177734 110.22705078 C-60.57072266 110.96568359 -61.31966797 111.70431641 -62.09130859 112.46533203 C-78.91496413 130.08537362 -86.34512857 154.52804053 -86.17773438 178.44824219 C-85.52213111 204.72501243 -74.1914109 228.46713081 -55.68408203 246.85498047 C-46.21885521 255.83481104 -34.91032625 262.42671672 -22.82177734 267.22705078 C-22.03029297 267.54287109 -21.23880859 267.85869141 -20.42333984 268.18408203 C1.02668574 275.61472229 28.57935016 274.20187369 48.91162109 264.61743164 C73.83487191 252.44554341 92.23935551 233.73805315 101.46289062 207.35791016 C109.58172406 183.17320768 108.23610315 156.9298253 97.09228516 133.87939453 C92.13707326 124.17988488 85.66877357 116.07494907 78.17822266 108.22705078 C77.65099609 107.62505859 77.12376953 107.02306641 76.58056641 106.40283203 C62.39650561 90.84026916 38.64970323 81.24995296 17.89453125 80.10058594 C-12.75260749 79.14798234 -38.24884277 88.34735567 -59.82177734 110.22705078 Z " fill="#60AA47" transform="translate(117.82177734375,63.77294921875)"/>
<path d="M0 0 C2.69114168 2.15733109 5.25616923 4.39082467 7.79296875 6.7265625 C8.42332031 7.26539063 9.05367187 7.80421875 9.703125 8.359375 C22.89721582 20.32121588 31.78758015 40.32787869 32.93505859 57.90283203 C33.81377729 79.09467216 29.23157942 100.05021635 14.9140625 116.4609375 C14.21410156 117.20859375 13.51414062 117.95625 12.79296875 118.7265625 C12.02082031 119.57734375 11.24867188 120.428125 10.453125 121.3046875 C0.24573324 132.07646901 -12.90127101 139.74582921 -27.20703125 143.7265625 C-27.91730469 143.9328125 -28.62757813 144.1390625 -29.359375 144.3515625 C-49.81143554 149.38591586 -71.60486109 144.6033954 -89.58203125 134.38671875 C-94.10703288 131.52492456 -98.18443267 128.25138133 -102.20703125 124.7265625 C-102.89539063 124.13359375 -103.58375 123.540625 -104.29296875 122.9296875 C-117.05266909 111.12822552 -126.19620671 92.95006687 -127.42651367 75.63818359 C-128.34439276 49.88753806 -123.45146052 29.46416227 -106.20703125 9.7265625 C-78.53580643 -19.38212855 -32.51456052 -23.04929869 0 0 Z " fill="#90C73C" transform="translate(301.20703125,350.2734375)"/>
<path d="M0 0 C20.56924219 17.47838531 33.82273483 40.05976638 36.17675781 67.26074219 C37.57879816 90.13984752 32.26486608 115.65229443 16.9375 133.49609375 C15.9475 133.49609375 14.9575 133.49609375 13.9375 133.49609375 C12.578125 131.7734375 12.578125 131.7734375 11.1875 129.43359375 C4.36960469 118.8592367 -4.93754007 112.39620943 -17.28515625 109.3359375 C-22.6970439 108.23664782 -28.11804208 108.04603351 -33.625 107.87109375 C-35.13803711 107.81308594 -35.13803711 107.81308594 -36.68164062 107.75390625 C-39.14165999 107.66063537 -41.60205365 107.57732482 -44.0625 107.49609375 C-44.0625 102.21609375 -44.0625 96.93609375 -44.0625 91.49609375 C-42.4125 91.14546875 -40.7625 90.79484375 -39.0625 90.43359375 C-32.21209558 88.5380507 -27.69516609 85.41448048 -23.71875 79.49609375 C-21.32981565 74.85473558 -20.87796172 70.81550421 -20.6875 65.62109375 C-20.5390625 62.26171875 -20.5390625 62.26171875 -20.0625 59.49609375 C-17.0625 57.37109375 -17.0625 57.37109375 -14.0625 56.49609375 C-12.95988912 53.1882611 -12.82509221 50.54050106 -12.75 47.05859375 C-12.71261719 45.92550781 -12.67523438 44.79242188 -12.63671875 43.625 C-13.14958336 39.85615088 -14.0782359 38.77058693 -17.0625 36.49609375 C-18.0525 36.16609375 -19.0425 35.83609375 -20.0625 35.49609375 C-20.0718457 34.87154297 -20.08119141 34.24699219 -20.09082031 33.60351562 C-20.14498937 30.73361745 -20.22854195 27.8652689 -20.3125 24.99609375 C-20.32667969 24.01382813 -20.34085938 23.0315625 -20.35546875 22.01953125 C-20.6073067 14.4643928 -22.01561735 9.03639869 -26.9921875 3.25390625 C-27.63414062 2.71507812 -28.27609375 2.17625 -28.9375 1.62109375 C-29.57429688 1.06679687 -30.21109375 0.5125 -30.8671875 -0.05859375 C-36.51619338 -3.77769015 -42.24586216 -3.82341872 -48.7734375 -3.83984375 C-49.70040436 -3.84650055 -50.62737122 -3.85315735 -51.58242798 -3.86001587 C-53.53735377 -3.87011008 -55.4923138 -3.87483389 -57.44726562 -3.87451172 C-60.42115655 -3.87888223 -63.39355897 -3.91522871 -66.3671875 -3.953125 C-68.27343247 -3.95899456 -70.17968443 -3.96296302 -72.0859375 -3.96484375 C-72.9663974 -3.97921478 -73.8468573 -3.99358582 -74.7539978 -4.00839233 C-81.75344942 -3.9571754 -87.00433341 -2.18379787 -92.3046875 2.4609375 C-92.84351563 3.11191406 -93.38234375 3.76289063 -93.9375 4.43359375 C-94.49179688 5.08199219 -95.04609375 5.73039062 -95.6171875 6.3984375 C-98.35172558 10.36721304 -99.30880144 14.01568465 -99.4765625 18.796875 C-99.51523438 19.77333984 -99.55390625 20.74980469 -99.59375 21.75585938 C-99.64015625 23.26696289 -99.64015625 23.26696289 -99.6875 24.80859375 C-99.72617188 25.83533203 -99.76484375 26.86207031 -99.8046875 27.91992188 C-99.89864897 30.4451364 -99.9843154 32.97034967 -100.0625 35.49609375 C-101.5165625 36.17671875 -101.5165625 36.17671875 -103 36.87109375 C-106.13329582 38.15395596 -106.13329582 38.15395596 -107.0625 40.49609375 C-107.1854938 42.61845182 -107.23805682 44.74520838 -107.25 46.87109375 C-107.26417969 48.01320313 -107.27835938 49.1553125 -107.29296875 50.33203125 C-107.06810792 53.41910363 -106.92275878 55.04926688 -105.0625 57.49609375 C-102.52479997 58.77864019 -102.52479997 58.77864019 -100.0625 59.49609375 C-100.03671875 60.33011719 -100.0109375 61.16414063 -99.984375 62.0234375 C-99.5003777 71.62638392 -98.39785173 78.75080357 -91.125 85.43359375 C-86.11462829 89.44374338 -82.48230755 90.42612583 -76.0625 91.49609375 C-76.0625 96.77609375 -76.0625 102.05609375 -76.0625 107.49609375 C-78.57810547 107.53476562 -78.57810547 107.53476562 -81.14453125 107.57421875 C-83.38804537 107.63054128 -85.63153396 107.68788764 -87.875 107.74609375 C-88.97521484 107.76027344 -90.07542969 107.77445313 -91.20898438 107.7890625 C-105.72139878 108.21715732 -118.26581734 113.85069493 -128.30078125 124.39453125 C-130.93985014 127.54268882 -133.07678442 130.90653096 -135.0625 134.49609375 C-148.42642479 123.15700605 -154.09086468 102.28116612 -156.0625 85.49609375 C-157.82507094 57.9793934 -151.05441174 33.38364484 -132.75 12.37109375 C-97.77554096 -25.00298512 -41.44287461 -32.68035192 0 0 Z " fill="#D6E5EE" transform="translate(188.0625,164.50390625)"/>
<path d="M0 0 C20.56924219 17.47838531 33.82273483 40.05976638 36.17675781 67.26074219 C37.57879816 90.13984752 32.26486608 115.65229443 16.9375 133.49609375 C15.9475 133.49609375 14.9575 133.49609375 13.9375 133.49609375 C12.578125 131.7734375 12.578125 131.7734375 11.1875 129.43359375 C4.10104569 118.44270952 -5.89303327 111.8422928 -18.77563477 108.86938477 C-23.50470183 108.09744673 -28.28055803 108.01473156 -33.0625 107.87109375 C-34.65384766 107.81308594 -34.65384766 107.81308594 -36.27734375 107.75390625 C-38.87213415 107.66040029 -41.46729224 107.57719399 -44.0625 107.49609375 C-44.0625 102.21609375 -44.0625 96.93609375 -44.0625 91.49609375 C-42.4125 91.14546875 -40.7625 90.79484375 -39.0625 90.43359375 C-32.21209558 88.5380507 -27.69516609 85.41448048 -23.71875 79.49609375 C-21.32981565 74.85473558 -20.87796172 70.81550421 -20.6875 65.62109375 C-20.5390625 62.26171875 -20.5390625 62.26171875 -20.0625 59.49609375 C-17.0625 57.37109375 -17.0625 57.37109375 -14.0625 56.49609375 C-12.95988912 53.1882611 -12.82509221 50.54050106 -12.75 47.05859375 C-12.71261719 45.92550781 -12.67523438 44.79242188 -12.63671875 43.625 C-13.14958336 39.85615088 -14.0782359 38.77058693 -17.0625 36.49609375 C-18.0525 36.16609375 -19.0425 35.83609375 -20.0625 35.49609375 C-20.0718457 34.87154297 -20.08119141 34.24699219 -20.09082031 33.60351562 C-20.14498937 30.73361745 -20.22854195 27.8652689 -20.3125 24.99609375 C-20.32667969 24.01382813 -20.34085938 23.0315625 -20.35546875 22.01953125 C-20.6073067 14.4643928 -22.01561735 9.03639869 -26.9921875 3.25390625 C-27.63414062 2.71507812 -28.27609375 2.17625 -28.9375 1.62109375 C-29.57429688 1.06679687 -30.21109375 0.5125 -30.8671875 -0.05859375 C-36.51619338 -3.77769015 -42.24586216 -3.82341872 -48.7734375 -3.83984375 C-49.70040436 -3.84650055 -50.62737122 -3.85315735 -51.58242798 -3.86001587 C-53.53735377 -3.87011008 -55.4923138 -3.87483389 -57.44726562 -3.87451172 C-60.42115655 -3.87888223 -63.39355897 -3.91522871 -66.3671875 -3.953125 C-68.27343247 -3.95899456 -70.17968443 -3.96296302 -72.0859375 -3.96484375 C-72.9663974 -3.97921478 -73.8468573 -3.99358582 -74.7539978 -4.00839233 C-81.75344942 -3.9571754 -87.00433341 -2.18379787 -92.3046875 2.4609375 C-92.84351563 3.11191406 -93.38234375 3.76289063 -93.9375 4.43359375 C-94.49179687 5.08199219 -95.04609375 5.73039062 -95.6171875 6.3984375 C-98.35172558 10.36721304 -99.30880144 14.01568465 -99.4765625 18.796875 C-99.51523437 19.77333984 -99.55390625 20.74980469 -99.59375 21.75585938 C-99.64015625 23.26696289 -99.64015625 23.26696289 -99.6875 24.80859375 C-99.72617187 25.83533203 -99.76484375 26.86207031 -99.8046875 27.91992188 C-99.89864897 30.4451364 -99.9843154 32.97034967 -100.0625 35.49609375 C-101.5165625 36.17671875 -101.5165625 36.17671875 -103 36.87109375 C-106.13329582 38.15395596 -106.13329582 38.15395596 -107.0625 40.49609375 C-107.1854938 42.61845182 -107.23805682 44.74520838 -107.25 46.87109375 C-107.26417969 48.01320313 -107.27835937 49.1553125 -107.29296875 50.33203125 C-107.06810792 53.41910363 -106.92275878 55.04926688 -105.0625 57.49609375 C-102.52479997 58.77864019 -102.52479997 58.77864019 -100.0625 59.49609375 C-100.03671875 60.33011719 -100.0109375 61.16414063 -99.984375 62.0234375 C-99.5003777 71.62638392 -98.39785173 78.75080357 -91.125 85.43359375 C-86.11462829 89.44374338 -82.48230755 90.42612583 -76.0625 91.49609375 C-76.0625 96.77609375 -76.0625 102.05609375 -76.0625 107.49609375 C-78.57810547 107.53476562 -78.57810547 107.53476562 -81.14453125 107.57421875 C-83.38804537 107.63054128 -85.63153396 107.68788764 -87.875 107.74609375 C-88.97521484 107.76027344 -90.07542969 107.77445313 -91.20898438 107.7890625 C-105.72139878 108.21715732 -118.26581734 113.85069493 -128.30078125 124.39453125 C-130.93985014 127.54268882 -133.07678442 130.90653096 -135.0625 134.49609375 C-148.42530586 123.15795544 -154.09298434 102.28055024 -156.0625 85.49609375 C-157.7929043 58.28533747 -150.79082335 33.005003 -132.6875 12.24609375 C-97.5491435 -24.90539775 -41.49475889 -32.72126599 0 0 Z " fill="#D6E5EE" transform="translate(444.0625,164.50390625)"/>
<path d="M0 0 C7.52735904 4.48853632 11.93185993 10.28063521 15.421875 18.2578125 C16.28588231 22.02802621 16.15296605 25.39009771 16.109375 29.2578125 C17.22908691 29.23686523 18.34879883 29.21591797 19.50244141 29.19433594 C23.67320877 29.12170824 27.84392068 29.07593039 32.01513672 29.03808594 C33.81731581 29.01802217 35.61943021 28.99076437 37.42138672 28.95605469 C40.01806636 28.90730421 42.61388229 28.88479168 45.2109375 28.8671875 C46.41129135 28.83621979 46.41129135 28.83621979 47.63589478 28.80462646 C52.93322822 28.80252154 55.976604 29.65165705 60.109375 33.2578125 C64.54268817 38.27432268 64.68796581 42.43945555 64.60546875 48.8203125 C64.60692398 49.72982666 64.60837921 50.63934082 64.60987854 51.57641602 C64.60822408 53.49270848 64.59671375 55.40901487 64.57592773 57.32519531 C64.54696602 60.24862448 64.55532994 63.17023887 64.56835938 66.09375 C64.56212137 67.96094626 64.55372994 69.82813683 64.54296875 71.6953125 C64.54590439 72.56422119 64.54884003 73.43312988 64.55186462 74.32836914 C64.46311522 80.07315797 63.63451021 84.48936999 59.609375 88.90234375 C55.10314444 92.4111014 52.21922781 93.38091173 46.5879364 93.40498352 C44.86564819 93.41571648 44.86564819 93.41571648 43.10856628 93.42666626 C41.8477272 93.42935516 40.58688812 93.43204407 39.2878418 93.43481445 C37.94739608 93.44108053 36.6069521 93.44772746 35.26651001 93.45472717 C30.86388352 93.47575128 26.46125675 93.48612738 22.05859375 93.49609375 C20.5422088 93.5001418 19.02582404 93.50425873 17.50943947 93.50844383 C10.38566698 93.52749117 3.26190483 93.54172366 -3.86188823 93.5500558 C-12.08230325 93.55982967 -20.3024491 93.58615477 -28.52276927 93.62655669 C-34.87871189 93.65672249 -41.23457736 93.67152507 -47.59059018 93.67483681 C-51.38588131 93.67718662 -55.18088474 93.6861377 -58.97609901 93.71129799 C-62.5474933 93.73459244 -66.11841071 93.7388068 -69.6898613 93.72853661 C-71.62102594 93.72780586 -73.55216644 93.7468871 -75.48323059 93.76660156 C-81.90049928 93.72807627 -86.06860169 93.6886114 -90.890625 89.2578125 C-94.42736592 85.33872121 -95.9956807 82.42907853 -96.06762695 77.15698242 C-96.08046219 76.33570358 -96.09329742 75.51442474 -96.10652161 74.66825867 C-96.11390854 73.78386612 -96.12129547 72.89947357 -96.12890625 71.98828125 C-96.136978 71.07452225 -96.14504974 70.16076324 -96.15336609 69.21931458 C-96.16719507 67.28514497 -96.17792253 65.35095108 -96.18579102 63.41674805 C-96.20299958 60.46681207 -96.24689551 57.51799829 -96.29101562 54.56835938 C-96.3011434 52.68750823 -96.30965924 50.80664757 -96.31640625 48.92578125 C-96.33391434 48.0474614 -96.35142242 47.16914154 -96.36946106 46.26420593 C-96.3501212 40.77251753 -95.67671487 37.52331369 -91.890625 33.2578125 C-86.9905374 28.98211526 -83.18939792 28.70730679 -76.9921875 28.8671875 C-76.15722748 28.87284729 -75.32226746 28.87850708 -74.46200562 28.88433838 C-71.81261234 28.90661027 -69.16460484 28.95678727 -66.515625 29.0078125 C-64.71225921 29.02788948 -62.90887208 29.04613815 -61.10546875 29.0625 C-56.69999231 29.10644464 -52.29554306 29.17540649 -47.890625 29.2578125 C-47.90432129 27.99396729 -47.91801758 26.73012207 -47.93212891 25.42797852 C-48.01394109 17.87863854 -44.70184128 11.25833195 -39.59375 5.7890625 C-28.99673947 -3.73852495 -12.95346121 -6.21592266 0 0 Z M-29.265625 20.8828125 C-31.46970393 25.46051489 -31.6877889 29.26333661 -30.890625 34.2578125 C-28.56093569 39.09639798 -25.72921048 41.92812319 -20.890625 44.2578125 C-15.89614911 45.0549764 -12.09332739 44.83689143 -7.515625 42.6328125 C-3.93154787 39.39007605 -1.29527259 36.79305354 -0.5078125 31.859375 C-0.25178581 26.17558256 -0.95435568 22.60842595 -4.890625 18.2578125 C-9.24123845 14.32154318 -12.80839506 13.61897331 -18.4921875 13.875 C-23.42586604 14.66246009 -26.02288855 17.29873537 -29.265625 20.8828125 Z " fill="#F06423" transform="translate(263.890625,18.7421875)"/>
<path d="M0 0 C0.09362688 16.38599794 0.16406876 32.77190852 0.20724869 49.15810966 C0.22783479 56.76728151 0.25587922 64.37628671 0.30175781 71.98535156 C0.34174727 78.62087882 0.36746152 85.25628533 0.37635398 91.89192975 C0.38154839 95.40237772 0.39367324 98.91248041 0.42292023 102.42281723 C0.45537844 106.35078942 0.45595167 110.27843021 0.45410156 114.20654297 C0.46848267 115.358134 0.48286377 116.50972504 0.49768066 117.69621277 C0.44922988 127.2331645 -1.66336254 135.36620131 -8.296875 142.46875 C-14.51709299 148.06123957 -21.44702752 151.25610531 -29.88461304 151.24050903 C-31.03718597 151.24325836 -32.18975891 151.24600769 -33.3772583 151.24884033 C-35.25245148 151.2380545 -35.25245148 151.2380545 -37.16552734 151.22705078 C-38.50629671 151.22648613 -39.84706669 151.22680428 -41.18783569 151.22793579 C-44.81551847 151.22850821 -48.44306825 151.21677194 -52.0707202 151.20278788 C-55.86636393 151.19026199 -59.66201091 151.18910855 -63.45767212 151.18673706 C-70.63985979 151.18052775 -77.82198637 151.16412437 -85.00414717 151.14403808 C-93.18308219 151.12166199 -101.36202017 151.11068135 -109.54097819 151.10064721 C-126.36068785 151.07975765 -143.18033612 151.04459236 -160 151 C-160 150.67 -160 150.34 -160 150 C-158.45892578 149.65388672 -158.45892578 149.65388672 -156.88671875 149.30078125 C-148.4557124 147.3435469 -140.68926581 145.08978057 -133 141 C-132.16082031 140.55914062 -131.32164062 140.11828125 -130.45703125 139.6640625 C-123.64484394 135.84078838 -116.25176136 130.82250525 -111.82562256 124.25834656 C-109.77693959 121.34992542 -108.2008078 119.32975497 -104.68988037 118.36561584 C-101.88632141 118.14429528 -99.15523943 118.13510976 -96.34375 118.203125 C-95.32325562 118.19794861 -94.30276123 118.19277222 -93.25134277 118.18743896 C-89.99990391 118.17556696 -86.75118088 118.21002844 -83.5 118.25 C-80.24937285 118.26877862 -76.99933108 118.27748217 -73.74865723 118.26971436 C-71.72964631 118.26704444 -69.71052949 118.28067631 -67.69177246 118.31280518 C-62.35629327 118.32902137 -58.59445084 118.03943379 -54 115 C-50.39861264 111.10660826 -48.88815463 108.12274866 -48.84178162 102.84284973 C-48.8319928 101.99731033 -48.82220398 101.15177094 -48.81211853 100.28060913 C-48.80636307 99.35632111 -48.8006076 98.43203308 -48.79467773 97.47973633 C-48.78477814 96.50394119 -48.77487854 95.52814606 -48.76467896 94.52278137 C-48.73305329 91.29255614 -48.70830223 88.06231619 -48.68359375 84.83203125 C-48.66302515 82.59429031 -48.6420287 80.35655326 -48.62062073 78.11882019 C-48.56539037 72.22518057 -48.5159853 66.33150583 -48.46777344 60.43780518 C-48.41756549 54.42530181 -48.36187573 48.41284953 -48.30664062 42.40039062 C-48.19904724 30.60030404 -48.09760485 18.80017313 -48 7 C-47.41588852 6.97985336 -46.83177704 6.95970673 -46.22996521 6.93894958 C-43.52664781 6.84107542 -40.82394207 6.73113772 -38.12109375 6.62109375 C-36.74358948 6.57390198 -36.74358948 6.57390198 -35.33825684 6.52575684 C-25.18372001 6.09455208 -15.31112042 4.14830836 -5.68359375 0.87109375 C-3 0 -3 0 0 0 Z " fill="#555A6D" transform="translate(424,345)"/>
<path d="M0 0 C0.92318024 -0.00524185 1.84636047 -0.0104837 2.79751587 -0.0158844 C4.74227904 -0.02228144 6.68708102 -0.02099777 8.63183594 -0.01245117 C11.58599759 -0.00395104 14.53821689 -0.0327191 17.4921875 -0.06445312 C19.39062443 -0.06606579 21.28906474 -0.06548636 23.1875 -0.0625 C24.49574234 -0.07935097 24.49574234 -0.07935097 25.83041382 -0.09654236 C32.95948108 -0.01670003 38.74381043 1.90121978 44.53125 6.109375 C45.30855469 6.91955078 45.30855469 6.91955078 46.1015625 7.74609375 C46.63523437 8.27847656 47.16890625 8.81085938 47.71875 9.359375 C52.55829294 16.01688097 52.61679841 21.88121971 52.4140625 29.87109375 C52.39375977 31.39766602 52.39375977 31.39766602 52.37304688 32.95507812 C52.3379286 35.44847589 52.28874809 37.94074887 52.2265625 40.43359375 C53.01466309 40.56435303 53.80276367 40.6951123 54.61474609 40.82983398 C57.2265625 41.43359375 57.2265625 41.43359375 59.015625 43.09375 C60.59848772 46.15224925 60.62537822 48.43766039 60.6015625 51.87109375 C60.60929687 52.98355469 60.61703125 54.09601563 60.625 55.2421875 C60.18059306 58.80179996 59.51762199 60.67731912 57.2265625 63.43359375 C54.5390625 64.24609375 54.5390625 64.24609375 52.2265625 64.43359375 C52.28457031 65.25601563 52.34257812 66.0784375 52.40234375 66.92578125 C52.77262093 76.08749658 51.58576423 82.61788424 45.32421875 89.53515625 C39.92303475 94.5734968 35.71120441 96.43359375 28.2265625 96.43359375 C28.2265625 101.71359375 28.2265625 106.99359375 28.2265625 112.43359375 C17.6665625 112.43359375 7.1065625 112.43359375 -3.7734375 112.43359375 C-3.7734375 107.15359375 -3.7734375 101.87359375 -3.7734375 96.43359375 C-5.0934375 96.39234375 -6.4134375 96.35109375 -7.7734375 96.30859375 C-14.67101935 95.53858068 -19.12821381 91.44284749 -23.6484375 86.43359375 C-27.2943391 81.28643855 -28.02570828 76.79486221 -27.8984375 70.55859375 C-27.88039063 69.40617187 -27.86234375 68.25375 -27.84375 67.06640625 C-27.82054687 66.19757813 -27.79734375 65.32875 -27.7734375 64.43359375 C-28.918125 64.34078125 -28.918125 64.34078125 -30.0859375 64.24609375 C-32.7734375 63.43359375 -32.7734375 63.43359375 -34.5546875 61.27734375 C-36.75436562 56.14476147 -36.53650871 50.90110399 -35.7734375 45.43359375 C-34.37325241 42.74588215 -33.41514496 42.0923403 -30.7734375 40.43359375 C-29.7834375 40.43359375 -28.7934375 40.43359375 -27.7734375 40.43359375 C-27.79438477 39.80904297 -27.81533203 39.18449219 -27.83691406 38.54101562 C-27.92079594 35.67204315 -27.97232261 32.80332967 -28.0234375 29.93359375 C-28.05695313 28.95132813 -28.09046875 27.9690625 -28.125 26.95703125 C-28.2273785 19.27864354 -26.72565334 14.32171019 -22.09765625 8.2265625 C-21.55753906 7.69675781 -21.01742188 7.16695312 -20.4609375 6.62109375 C-19.92855469 6.07839844 -19.39617187 5.53570312 -18.84765625 4.9765625 C-12.83137637 0.50117539 -7.26494241 -0.02434033 0 0 Z " fill="#F9B891" transform="translate(371.7734375,159.56640625)"/>
<path d="M0 0 C0.92318024 -0.00524185 1.84636047 -0.0104837 2.79751587 -0.0158844 C4.74227904 -0.02228144 6.68708102 -0.02099777 8.63183594 -0.01245117 C11.58599759 -0.00395104 14.53821689 -0.0327191 17.4921875 -0.06445312 C19.39062443 -0.06606579 21.28906474 -0.06548636 23.1875 -0.0625 C24.49574234 -0.07935097 24.49574234 -0.07935097 25.83041382 -0.09654236 C32.95948108 -0.01670003 38.74381043 1.90121978 44.53125 6.109375 C45.30855469 6.91955078 45.30855469 6.91955078 46.1015625 7.74609375 C46.63523437 8.27847656 47.16890625 8.81085938 47.71875 9.359375 C52.55829294 16.01688097 52.61679841 21.88121971 52.4140625 29.87109375 C52.39375977 31.39766602 52.39375977 31.39766602 52.37304688 32.95507812 C52.3379286 35.44847589 52.28874809 37.94074887 52.2265625 40.43359375 C53.01466309 40.56435303 53.80276367 40.6951123 54.61474609 40.82983398 C57.2265625 41.43359375 57.2265625 41.43359375 59.015625 43.09375 C60.59848772 46.15224925 60.62537822 48.43766039 60.6015625 51.87109375 C60.60929687 52.98355469 60.61703125 54.09601563 60.625 55.2421875 C60.18059306 58.80179996 59.51762199 60.67731912 57.2265625 63.43359375 C54.5390625 64.24609375 54.5390625 64.24609375 52.2265625 64.43359375 C52.28457031 65.25601563 52.34257812 66.0784375 52.40234375 66.92578125 C52.77262093 76.08749658 51.58576423 82.61788424 45.32421875 89.53515625 C38.62862035 95.78095437 32.40800535 96.74715577 23.515625 96.76953125 C22.58865814 96.77618805 21.66169128 96.78284485 20.70663452 96.78970337 C18.75170873 96.79979758 16.7967487 96.80452139 14.84179688 96.80419922 C11.86790595 96.80856973 8.89550353 96.84491621 5.921875 96.8828125 C4.01563003 96.88868206 2.10937807 96.89265052 0.203125 96.89453125 C-0.6773349 96.90890228 -1.5577948 96.92327332 -2.4649353 96.93807983 C-9.62125516 96.88571505 -14.8232396 95.00916335 -20.234375 90.28515625 C-20.86601563 89.55039063 -21.49765625 88.815625 -22.1484375 88.05859375 C-22.79554687 87.32898438 -23.44265625 86.599375 -24.109375 85.84765625 C-27.49840273 80.93117941 -28.01829026 76.43137879 -27.8984375 70.55859375 C-27.88039063 69.40617187 -27.86234375 68.25375 -27.84375 67.06640625 C-27.82054688 66.19757813 -27.79734375 65.32875 -27.7734375 64.43359375 C-28.918125 64.34078125 -28.918125 64.34078125 -30.0859375 64.24609375 C-32.7734375 63.43359375 -32.7734375 63.43359375 -34.5546875 61.27734375 C-36.75436562 56.14476147 -36.53650871 50.90110399 -35.7734375 45.43359375 C-34.37325241 42.74588215 -33.41514496 42.0923403 -30.7734375 40.43359375 C-29.7834375 40.43359375 -28.7934375 40.43359375 -27.7734375 40.43359375 C-27.79438477 39.80904297 -27.81533203 39.18449219 -27.83691406 38.54101562 C-27.92079594 35.67204315 -27.97232261 32.80332967 -28.0234375 29.93359375 C-28.05695313 28.95132813 -28.09046875 27.9690625 -28.125 26.95703125 C-28.2273785 19.27864354 -26.72565334 14.32171019 -22.09765625 8.2265625 C-21.55753906 7.69675781 -21.01742187 7.16695312 -20.4609375 6.62109375 C-19.92855469 6.07839844 -19.39617187 5.53570312 -18.84765625 4.9765625 C-12.83137637 0.50117539 -7.26494241 -0.02434033 0 0 Z " fill="#F9B891" transform="translate(115.7734375,159.56640625)"/>
<path d="M0 0 C1.05316406 0.25394531 2.10632813 0.50789063 3.19140625 0.76953125 C12.75870244 3.05845416 22.33901323 5.14374053 32 7 C32.00586624 8.23948395 32.01173248 9.4789679 32.01777649 10.75601196 C32.07499771 22.43888992 32.14775645 34.12158163 32.23571491 45.80426979 C32.28043591 51.81041751 32.31968844 57.81649712 32.34643555 63.82275391 C32.37245094 69.61948918 32.41284138 75.41596261 32.46318626 81.21253586 C32.47986681 83.42366656 32.49137367 85.63484256 32.49761391 87.84602737 C32.50724182 90.94401731 32.53528638 94.04133556 32.56762695 97.13916016 C32.56619186 98.05266235 32.56475677 98.96616455 32.5632782 99.90734863 C32.6386241 105.01325873 33.14897556 108.58637154 36 113 C40.35639214 116.93137827 42.69988158 118.1300395 48.50024414 118.04663086 C50.22828026 118.02813332 50.22828026 118.02813332 51.9912262 118.00926208 C53.86922157 117.98727501 53.86922157 117.98727501 55.78515625 117.96484375 C59.11542491 117.95723792 62.44561568 117.95502741 65.77588749 117.95516109 C69.2591387 117.9521719 72.74059447 117.93168591 76.22338867 117.87329102 C78.93952174 117.82860296 81.65325859 117.81066187 84.36973572 117.82264709 C86.92532956 117.83387135 89.48143048 117.80807125 92.03614807 117.74021912 C97.14543735 117.81001067 100.61504844 117.88791076 104.68869019 121.15896606 C107.06811523 123.81469727 107.06811523 123.81469727 109.06175232 126.45045471 C118.50521453 138.87225964 136.77599301 147.01083614 151.80859375 149.45703125 C153.86627969 149.69779014 155.93302184 149.85986589 158 150 C158 150.33 158 150.66 158 151 C140.7013155 151.09360859 123.4027105 151.16405989 106.10383034 151.20724869 C98.07092425 151.22783862 90.03817591 151.25589052 82.00537109 151.30175781 C75.00067992 151.34173537 67.99610304 151.36745874 60.99130094 151.37635398 C57.28524136 151.38155036 53.57950864 151.3936882 49.87355423 151.42292023 C45.72756957 151.45535526 41.58214642 151.45595245 37.43603516 151.45410156 C35.61046585 151.47567322 35.61046585 151.47567322 33.74801636 151.49768066 C24.01595333 151.45079033 15.79208017 149.48446638 8.53125 142.703125 C0.87673865 134.18943381 -0.29561701 125.77888872 -0.22705078 114.66064453 C-0.22748886 112.8012751 -0.22748886 112.8012751 -0.22793579 110.90434265 C-0.22678395 107.51834579 -0.21677666 104.13259497 -0.20278788 100.74664164 C-0.19025695 97.20324337 -0.18910816 93.65984157 -0.18673706 90.11642456 C-0.18052922 83.41235034 -0.16412786 76.70834161 -0.14403808 70.00429618 C-0.12165739 62.36948687 -0.1106802 54.73467437 -0.10064721 47.0998404 C-0.07976098 31.39985572 -0.04459859 15.69993632 0 0 Z " fill="#555A6D" transform="translate(88,345)"/>
<path d="M0 0 C0.76042603 -0.00671722 1.52085205 -0.01343445 2.30432129 -0.02035522 C4.80109322 -0.03924321 7.29759479 -0.04325534 9.79443359 -0.04541016 C11.5469066 -0.05184663 13.29937855 -0.05857561 15.05184937 -0.06558228 C18.72176602 -0.07753366 22.39158871 -0.08126552 26.06152344 -0.08007812 C30.7315128 -0.07987556 35.40088938 -0.10712266 40.07073402 -0.14162254 C43.69134202 -0.16402301 47.3118059 -0.1679116 50.93247604 -0.16685867 C52.65222653 -0.16919702 54.37198208 -0.17791923 56.09166336 -0.19352341 C72.94689494 -0.33209641 87.23754397 2.64753679 99.88037109 14.60302734 C103.85074794 18.74235639 106.63315276 23.11522154 109.06787109 28.29052734 C92.47000871 47.99814723 70.83993401 60.82153941 45.06787109 64.29052734 C16.92586094 66.40117811 -7.65439135 59.62390397 -29.81494141 41.99755859 C-34.91446735 37.57543237 -39.17343432 32.89801073 -42.93212891 27.29052734 C-32.71182703 11.70456698 -19.69384618 -0.02541032 0 0 Z " fill="#91C83C" transform="translate(350.93212890625,271.70947265625)"/>
<path d="M0 0 C4.13309959 1.4036942 7.36694789 3.50135567 10.0859375 6.9921875 C12.06780606 11.34552271 11.74880774 16.36363209 11 21 C8.65126153 25.72278813 5.18886455 29.10061411 1.49658203 32.77807617 C0.84093262 33.43883652 0.1852832 34.09959686 -0.49023438 34.78038025 C-2.65241496 36.95642683 -4.82191098 39.12499862 -6.9921875 41.29296875 C-8.50071904 42.80538813 -10.0090268 44.31803074 -11.51712036 45.83088684 C-14.67614437 48.99736611 -17.83900803 52.1599499 -21.00439453 55.32006836 C-25.06042623 59.37029874 -29.10496455 63.43179451 -33.14648247 67.49650097 C-36.25706397 70.6218101 -39.37454032 73.74016929 -42.49405289 76.85656166 C-43.98832374 78.35134596 -45.48023184 79.84849607 -46.96972275 81.34804344 C-49.05198849 83.44264033 -51.1435659 85.52747904 -53.23779297 87.61010742 C-54.15753403 88.54131409 -54.15753403 88.54131409 -55.09585571 89.49133301 C-59.26439388 93.60899347 -62.41224192 95.71247132 -68.375 96.375 C-75.70713249 95.61650354 -80.5437371 90.90982094 -85.51953125 85.87890625 C-86.10417648 85.2971312 -86.68882172 84.71535614 -87.29118347 84.11595154 C-88.51576173 82.8934016 -89.73661276 81.66710776 -90.95385742 80.43725586 C-92.81430382 78.56068055 -94.69030402 76.70073093 -96.56835938 74.84179688 C-97.76138022 73.64679452 -98.95347061 72.45086236 -100.14453125 71.25390625 C-100.70284134 70.70166885 -101.26115143 70.14943146 -101.83638 69.58045959 C-106.22730881 65.10934248 -108.26752847 61.38395181 -108.4375 55.125 C-108.32656659 49.80812021 -106.72204916 46.72204916 -103 43 C-99.1650419 39.60332283 -95.50790292 39.64825264 -90.59765625 39.6015625 C-83.76332171 40.64983637 -79.69406787 44.91685561 -75.125 49.6875 C-74.23554688 50.59725586 -74.23554688 50.59725586 -73.328125 51.52539062 C-71.87844078 53.01014785 -70.43823532 54.50414991 -69 56 C-63.22493174 51.24332765 -57.96556272 46.07277059 -52.70850754 40.75310707 C-51.18036411 39.20735558 -49.64851748 37.66536073 -48.1156311 36.12431335 C-43.76284111 31.74724972 -39.41587333 27.36443703 -35.07324219 22.97729492 C-32.40456072 20.28177737 -29.73098327 17.59119618 -27.05437088 14.90355492 C-26.04061953 13.88361863 -25.02876651 12.86179169 -24.01890182 11.83800697 C-22.60755909 10.40736456 -21.18940877 8.98344766 -19.77099609 7.55981445 C-18.96826263 6.74962357 -18.16552917 5.93943268 -17.33847046 5.10469055 C-11.71411445 0.04260867 -7.36676196 -0.85274415 0 0 Z " fill="#5FAA45" transform="translate(298,368)"/>
<path d="M0 0 C17.56765849 -0.16043524 17.56765849 -0.16043524 25.10546875 -0.1953125 C30.23177835 -0.21914495 35.35779985 -0.24721713 40.48388672 -0.30175781 C44.62066411 -0.34549267 48.75713218 -0.36919487 52.89412308 -0.37950897 C54.46566252 -0.38685112 56.03718667 -0.40118766 57.60859299 -0.42292023 C68.93116327 -0.57316193 78.79609416 0.19694171 87.46875 8.296875 C94.69254654 16.33150585 96.30439861 24.33010787 96.1953125 34.8671875 C96.1924826 35.90191193 96.18965271 36.93663635 96.18673706 38.00271606 C96.17558048 41.29359714 96.15048397 44.58420178 96.125 47.875 C96.11496437 50.11197522 96.10583953 52.34895473 96.09765625 54.5859375 C96.07565595 60.0573853 96.04222338 65.52867289 96 71 C94.57311248 70.6838932 93.14628497 70.36751549 91.71948242 70.05102539 C90.92491135 69.87487198 90.13034027 69.69871857 89.31169128 69.51722717 C85.23788062 68.60573627 81.17647343 67.64109813 77.11328125 66.68359375 C70.59398382 65.25212945 64.27788997 64.7269624 57.625 64.4375 C56.69816406 64.39431641 55.77132812 64.35113281 54.81640625 64.30664062 C52.54439706 64.20123814 50.27229075 64.09911394 48 64 C47.98598145 63.09290283 47.98598145 63.09290283 47.97167969 62.16748047 C47.91768278 59.4025212 47.83409606 56.63920094 47.75 53.875 C47.73582031 52.92367187 47.72164063 51.97234375 47.70703125 50.9921875 C47.50053271 45.04502964 46.90289914 41.56192526 43 37 C38.31951174 32.88684365 33.83092775 32.81346439 27.83203125 32.68359375 C26.63981209 32.6524221 26.63981209 32.6524221 25.42350769 32.62062073 C22.88659237 32.55527913 20.34957427 32.49631192 17.8125 32.4375 C16.09178628 32.39430014 14.37108292 32.35068537 12.65039062 32.30664062 C8.43369753 32.19883323 4.21692549 32.0996458 0 32 C0 21.44 0 10.88 0 0 Z " fill="#555A6D" transform="translate(328,64)"/>
<path d="M0 0 C1.68106339 0.00022659 1.68106339 0.00022659 3.39608765 0.00045776 C5.18703354 0.01594162 5.18703354 0.01594162 7.01416016 0.03173828 C8.24864899 0.03456818 9.48313782 0.03739807 10.7550354 0.04031372 C14.68786415 0.05148556 18.62046303 0.07658514 22.55322266 0.10205078 C25.22379224 0.11321253 27.89435967 0.12120959 30.56494141 0.12939453 C37.10286108 0.14971125 43.64028532 0.18886685 50.17822266 0.22705078 C50.17822266 10.78705078 50.17822266 21.34705078 50.17822266 32.22705078 C47.57689453 32.25283203 44.97556641 32.27861328 42.29541016 32.30517578 C39.76340118 32.34363845 37.23159294 32.3887849 34.69970703 32.43457031 C32.94622454 32.46271662 31.19261666 32.48396263 29.43896484 32.49804688 C26.91129667 32.51956505 24.38512582 32.5662578 21.85791016 32.61767578 C20.69036697 32.61951874 20.69036697 32.61951874 19.49923706 32.62139893 C14.29127996 32.76011531 11.33653169 33.83628557 7.17822266 37.22705078 C2.46791058 42.42736176 2.52784619 47.41821708 2.42822266 54.10205078 C2.38375 55.56384766 2.38375 55.56384766 2.33837891 57.05517578 C2.26806402 59.44588205 2.21518032 61.83563512 2.17822266 64.22705078 C1.59967529 64.33251221 1.02112793 64.43797363 0.42504883 64.54663086 C-2.26231214 65.03939837 -4.9482721 65.53944825 -7.63427734 66.03955078 C-8.54371094 66.20519531 -9.45314453 66.37083984 -10.39013672 66.54150391 C-11.30214844 66.71230469 -12.21416016 66.88310547 -13.15380859 67.05908203 C-14.38707886 67.28688354 -14.38707886 67.28688354 -15.64526367 67.51928711 C-20.4171103 68.58250926 -25.11328837 69.91457783 -29.82177734 71.22705078 C-29.92383494 64.71677151 -29.99351673 58.20670124 -30.04150391 51.69580078 C-30.06152481 49.48445934 -30.08874994 47.2731702 -30.12353516 45.06201172 C-30.17247361 41.869497 -30.19484202 38.67768682 -30.21240234 35.48486328 C-30.23304749 34.50840851 -30.25369263 33.53195374 -30.27496338 32.52590942 C-30.27788663 23.42864435 -27.81869084 15.49710463 -21.52490234 8.75830078 C-15.33123244 3.18968014 -8.4077424 -0.03804408 0 0 Z " fill="#555A6D" transform="translate(117.82177734375,63.77294921875)"/>
<path d="M0 0 C1.19044922 0.00902344 2.38089844 0.01804687 3.60742188 0.02734375 C6.50933367 0.05065228 9.41080317 0.08336877 12.3125 0.125 C12.3125 0.455 12.3125 0.785 12.3125 1.125 C10.3325 1.455 8.3525 1.785 6.3125 2.125 C7.3025 3.61 7.3025 3.61 8.3125 5.125 C8.46484375 7.0625 8.46484375 7.0625 8.25 9.125 C8.19714844 9.805625 8.14429688 10.48625 8.08984375 11.1875 C6.86359928 14.24386812 5.31301121 14.82853073 2.3125 16.125 C-0.75781296 16.64262351 -3.83200012 16.81130391 -6.9375 17 C-33.06373935 19.16528942 -56.55601171 31.12899337 -73.6875 51.125 C-87.44770686 68.72781782 -94.8144001 89.07736908 -95.31640625 111.4609375 C-95.76681852 114.69442351 -96.68807435 116.55301155 -98.6875 119.125 C-101.31628161 120.24776504 -103.84846191 120.33105922 -106.6875 120.125 C-109.95461826 118.44955474 -110.515311 117.64156699 -111.6875 114.125 C-113.75514188 85.11022217 -102.59033513 58.41268133 -83.83569336 36.6730957 C-62.40790745 12.551531 -32.13676561 -0.46914986 0 0 Z " fill="#90C73D" transform="translate(127.6875,127.875)"/>
<path d="M0 0 C0.67885254 -0.01788574 1.35770508 -0.03577148 2.05712891 -0.05419922 C6.40309869 -0.04664476 9.22615756 0.55650978 12.625 3.3125 C13.79680914 7.26735583 14.0298133 9.38142942 12.375 13.1875 C10.33947177 15.65921285 8.87096458 16.17019521 5.71826172 16.53027344 C5.00428223 16.57700195 4.29030273 16.62373047 3.5546875 16.671875 C-23.82101762 18.73682915 -46.75569051 28.53731502 -65.96484375 48.49609375 C-80.46124621 65.4359741 -88.089929 85.73025913 -89.60449219 107.87963867 C-89.95477057 112.36935549 -90.35861739 115.73881806 -93.375 119.3125 C-95.3125 120.08984375 -95.3125 120.08984375 -97.375 120.25 C-98.055625 120.32089844 -98.73625 120.39179688 -99.4375 120.46484375 C-101.375 120.3125 -101.375 120.3125 -104.375 118.3125 C-104.705 120.2925 -105.035 122.2725 -105.375 124.3125 C-105.705 124.3125 -106.035 124.3125 -106.375 124.3125 C-106.83292724 109.15510821 -106.94587525 94.8739032 -102.375 80.3125 C-102.16069336 79.62510742 -101.94638672 78.93771484 -101.72558594 78.22949219 C-92.76511446 50.43507483 -73.39922605 26.88158215 -47.60498047 13.07543945 C-32.70748052 5.45401809 -16.78706143 0.29943054 0 0 Z " fill="#91C73E" transform="translate(378.375,127.6875)"/>
<path d="M0 0 C0.09362688 16.38599794 0.16406876 32.77190852 0.20724869 49.15810966 C0.22783479 56.76728151 0.25587922 64.37628671 0.30175781 71.98535156 C0.34174727 78.62087882 0.36746152 85.25628533 0.37635398 91.89192975 C0.38154839 95.40237772 0.39367324 98.91248041 0.42292023 102.42281723 C0.45537844 106.35078942 0.45595167 110.27843021 0.45410156 114.20654297 C0.46848267 115.358134 0.48286377 116.50972504 0.49768066 117.69621277 C0.44922988 127.2331645 -1.66336254 135.36620131 -8.296875 142.46875 C-16.00608745 149.39996853 -23.72261243 151.32376662 -33.875 151.125 C-34.75414062 151.11597656 -35.63328125 151.10695313 -36.5390625 151.09765625 C-38.6928271 151.07424577 -40.84645014 151.0383801 -43 151 C-40.24490953 149.60587086 -37.47939527 148.36431208 -34.625 147.1875 C-26.77548437 143.66165199 -22.39801023 138.80557422 -19 131 C-16.74301764 124.71542561 -16.6942228 118.82674456 -16.68115234 112.18969727 C-16.67110672 111.01824661 -16.6610611 109.84679596 -16.65071106 108.6398468 C-16.61991136 104.7820381 -16.60285254 100.92429872 -16.5859375 97.06640625 C-16.56722328 94.38597104 -16.54774529 91.70555228 -16.5272522 89.02513123 C-16.48056529 82.70010609 -16.44377257 76.37506409 -16.41057932 70.04995531 C-16.3722864 62.84552204 -16.32289515 55.64117803 -16.27259517 48.43682015 C-16.16942551 33.62461585 -16.08011669 18.81234737 -16 4 C-13.89748139 3.32815382 -11.79292237 2.66269032 -9.6875 2 C-8.51574219 1.62875 -7.34398437 1.2575 -6.13671875 0.875 C-3 0 -3 0 0 0 Z " fill="#453C4A" transform="translate(424,345)"/>
<path d="M0 0 C0.92318024 -0.00524185 1.84636047 -0.0104837 2.79751587 -0.0158844 C4.74227904 -0.02228144 6.68708102 -0.02099777 8.63183594 -0.01245117 C11.58599759 -0.00395104 14.53821689 -0.0327191 17.4921875 -0.06445312 C19.39062443 -0.06606579 21.28906474 -0.06548636 23.1875 -0.0625 C24.49574234 -0.07935097 24.49574234 -0.07935097 25.83041382 -0.09654236 C32.95948108 -0.01670003 38.74381043 1.90121978 44.53125 6.109375 C45.30855469 6.91955078 45.30855469 6.91955078 46.1015625 7.74609375 C46.63523437 8.27847656 47.16890625 8.81085938 47.71875 9.359375 C51.53428327 14.60820444 52.60216945 19.26145402 52.51953125 25.6796875 C52.51528641 26.33566422 52.51104156 26.99164093 52.50666809 27.66749573 C52.49005029 29.73580286 52.45243488 31.80308776 52.4140625 33.87109375 C52.39899361 35.284491 52.38530909 36.69790373 52.37304688 38.11132812 C52.34020354 41.5524081 52.28854265 44.99290094 52.2265625 48.43359375 C47.44873047 47.70214844 47.44873047 47.70214844 45.44921875 45.28515625 C44.03425047 41.98507049 43.79162974 39.38870649 43.6640625 35.80859375 C43.53405134 30.79894069 43.53405134 30.79894069 41.2265625 26.43359375 C38.23879133 25.43767003 36.20687339 25.28990296 33.08422852 25.2565918 C32.03626602 25.24375656 30.98830353 25.23092133 29.90858459 25.21769714 C28.77730637 25.21031021 27.64602814 25.20292328 26.48046875 25.1953125 C25.31780991 25.18724075 24.15515106 25.17916901 22.95726013 25.17085266 C20.49683116 25.15701733 18.03638304 25.14629272 15.57592773 25.13842773 C11.80741317 25.12117775 8.0397674 25.07728093 4.27148438 25.03320312 C1.88281896 25.0230795 -0.50585392 25.01456237 -2.89453125 25.0078125 C-4.02378525 24.99030441 -5.15303925 24.97279633 -6.31651306 24.95475769 C-7.36762772 24.95768326 -8.41874237 24.96060883 -9.50170898 24.96362305 C-10.42531723 24.95775681 -11.34892548 24.95189056 -12.30052185 24.94584656 C-15.55675682 25.58809227 -16.74499954 26.85719767 -18.7734375 29.43359375 C-19.35994541 32.53137156 -19.35994541 32.53137156 -19.3359375 35.87109375 C-19.42894628 40.59265697 -19.69310001 43.71966386 -22.7734375 47.43359375 C-25.38500977 48.06811523 -25.38500977 48.06811523 -27.7734375 48.43359375 C-27.87313213 44.30776978 -27.94528983 40.18242278 -27.99316406 36.05566406 C-28.0131438 34.65514902 -28.0403377 33.25471593 -28.07519531 31.85449219 C-28.30353026 22.43903355 -27.95123621 15.93582282 -22.09765625 8.2265625 C-21.55753906 7.69675781 -21.01742188 7.16695312 -20.4609375 6.62109375 C-19.92855469 6.07839844 -19.39617187 5.53570312 -18.84765625 4.9765625 C-12.83137637 0.50117539 -7.26494241 -0.02434033 0 0 Z " fill="#473D4B" transform="translate(371.7734375,159.56640625)"/>
<path d="M0 0 C0.92318024 -0.00524185 1.84636047 -0.0104837 2.79751587 -0.0158844 C4.74227904 -0.02228144 6.68708102 -0.02099777 8.63183594 -0.01245117 C11.58599759 -0.00395104 14.53821689 -0.0327191 17.4921875 -0.06445312 C19.39062443 -0.06606579 21.28906474 -0.06548636 23.1875 -0.0625 C24.49574234 -0.07935097 24.49574234 -0.07935097 25.83041382 -0.09654236 C32.95948108 -0.01670003 38.74381043 1.90121978 44.53125 6.109375 C45.30855469 6.91955078 45.30855469 6.91955078 46.1015625 7.74609375 C46.63523437 8.27847656 47.16890625 8.81085938 47.71875 9.359375 C51.53428327 14.60820444 52.60216945 19.26145402 52.51953125 25.6796875 C52.51528641 26.33566422 52.51104156 26.99164093 52.50666809 27.66749573 C52.49005029 29.73580286 52.45243488 31.80308776 52.4140625 33.87109375 C52.39899361 35.284491 52.38530909 36.69790373 52.37304688 38.11132812 C52.34020354 41.5524081 52.28854265 44.99290094 52.2265625 48.43359375 C47.44873047 47.70214844 47.44873047 47.70214844 45.44921875 45.28515625 C44.03425047 41.98507049 43.79162974 39.38870649 43.6640625 35.80859375 C43.53405134 30.79894069 43.53405134 30.79894069 41.2265625 26.43359375 C38.23879133 25.43767003 36.20687339 25.28990296 33.08422852 25.2565918 C32.03626602 25.24375656 30.98830353 25.23092133 29.90858459 25.21769714 C28.77730637 25.21031021 27.64602814 25.20292328 26.48046875 25.1953125 C25.31780991 25.18724075 24.15515106 25.17916901 22.95726013 25.17085266 C20.49683116 25.15701733 18.03638304 25.14629272 15.57592773 25.13842773 C11.80741317 25.12117775 8.0397674 25.07728093 4.27148438 25.03320312 C1.88281896 25.0230795 -0.50585392 25.01456237 -2.89453125 25.0078125 C-4.02378525 24.99030441 -5.15303925 24.97279633 -6.31651306 24.95475769 C-7.36762772 24.95768326 -8.41874237 24.96060883 -9.50170898 24.96362305 C-10.42531723 24.95775681 -11.34892548 24.95189056 -12.30052185 24.94584656 C-15.55675682 25.58809227 -16.74499954 26.85719767 -18.7734375 29.43359375 C-19.35994541 32.53137156 -19.35994541 32.53137156 -19.3359375 35.87109375 C-19.42894628 40.59265697 -19.69310001 43.71966386 -22.7734375 47.43359375 C-25.38500977 48.06811523 -25.38500977 48.06811523 -27.7734375 48.43359375 C-27.87313213 44.30776978 -27.94528983 40.18242278 -27.99316406 36.05566406 C-28.0131438 34.65514902 -28.0403377 33.25471593 -28.07519531 31.85449219 C-28.30353026 22.43903355 -27.95123621 15.93582282 -22.09765625 8.2265625 C-21.55753906 7.69675781 -21.01742187 7.16695312 -20.4609375 6.62109375 C-19.92855469 6.07839844 -19.39617187 5.53570312 -18.84765625 4.9765625 C-12.83137637 0.50117539 -7.26494241 -0.02434033 0 0 Z " fill="#473D4B" transform="translate(115.7734375,159.56640625)"/>
<path d="M0 0 C23.03058523 -0.85123313 23.03058523 -0.85123313 32.8125 6.75 C38.29208275 11.86772351 42.61013082 18.75002956 43.17469788 26.35247803 C43.23095656 29.19279539 43.22472139 32.02646123 43.1953125 34.8671875 C43.1924826 35.90191193 43.18965271 36.93663635 43.18673706 38.00271606 C43.17558048 41.29359714 43.15048397 44.58420178 43.125 47.875 C43.11496437 50.11197522 43.10583953 52.34895473 43.09765625 54.5859375 C43.07565595 60.0573853 43.04222338 65.52867289 43 71 C37.60204011 69.84941444 32.29012667 68.57578241 27 67 C26.98018066 65.86046875 26.96036133 64.7209375 26.93994141 63.546875 C26.86345511 59.28998972 26.77480639 55.03342723 26.68261719 50.77685547 C26.64450427 48.94000658 26.60962161 47.10308754 26.578125 45.26611328 C26.53208774 42.61465506 26.47416016 39.96367244 26.4140625 37.3125 C26.40251129 36.50071289 26.39096008 35.68892578 26.37905884 34.85253906 C26.13360316 25.21445377 23.94860678 16.05618519 17.0234375 8.98046875 C11.79766519 4.59488245 6.62939767 2.45320826 0 1 C0 0.67 0 0.34 0 0 Z " fill="#463C4B" transform="translate(381,64)"/>
<path d="M0 0 C10.56 0 21.12 0 32 0 C32 5.28 32 10.56 32 16 C21.44 16 10.88 16 0 16 C0 10.72 0 5.44 0 0 Z " fill="#F0915A" transform="translate(368,256)"/>
<path d="M0 0 C10.56 0 21.12 0 32 0 C32 5.28 32 10.56 32 16 C21.44 16 10.88 16 0 16 C0 10.72 0 5.44 0 0 Z " fill="#F0915A" transform="translate(112,256)"/>
<path d="M0 0 C0 7.92 0 15.84 0 24 C-5 23 -5 23 -6.78125 20.84375 C-8.98092812 15.71116772 -8.76307121 10.46751024 -8 5 C-6.14216568 1.43381227 -4.11623156 0 0 0 Z " fill="#EF935D" transform="translate(344,200)"/>
<path d="M0 0 C0 7.92 0 15.84 0 24 C-5 23 -5 23 -6.78125 20.84375 C-8.98092812 15.71116772 -8.76307121 10.46751024 -8 5 C-6.14216568 1.43381227 -4.11623156 0 0 0 Z " fill="#EF935D" transform="translate(88,200)"/>
<path d="M0 0 C5 1 5 1 6.7890625 2.66015625 C8.37192522 5.7186555 8.39881572 8.00406664 8.375 11.4375 C8.38273437 12.54996094 8.39046875 13.66242188 8.3984375 14.80859375 C7.95403056 18.36820621 7.29105949 20.24372537 5 23 C3.35 23.33 1.7 23.66 0 24 C0 16.08 0 8.16 0 0 Z " fill="#EF935D" transform="translate(424,200)"/>
<path d="M0 0 C5 1 5 1 6.7890625 2.66015625 C8.37192522 5.7186555 8.39881572 8.00406664 8.375 11.4375 C8.38273438 12.54996094 8.39046875 13.66242188 8.3984375 14.80859375 C7.95403056 18.36820621 7.29105949 20.24372537 5 23 C3.35 23.33 1.7 23.66 0 24 C0 16.08 0 8.16 0 0 Z " fill="#EF935D" transform="translate(168,200)"/>
<path d="M0 0 C0.66 0.33 1.32 0.66 2 1 C-4.6 7.6 -11.2 14.2 -18 21 C-18 16.61305328 -15.24722277 14.63981539 -12.375 11.625 C-11.85292969 11.06039062 -11.33085938 10.49578125 -10.79296875 9.9140625 C-7.40617436 6.30148181 -3.86293875 3.09731125 0 0 Z " fill="#81BF3D" transform="translate(58,151)"/>
<path d="M0 0 C0.66 0.33 1.32 0.66 2 1 C-1.63 4.63 -5.26 8.26 -9 12 C-9 7.8407692 -6.75316432 5.85455565 -4 3 C-1.6875 1.125 -1.6875 1.125 0 0 Z " fill="#4A485C" transform="translate(102,68)"/>
</svg>
