<?xml version="1.0" encoding="UTF-8"?>
<svg version="1.1" xmlns="http://www.w3.org/2000/svg" width="512" height="512">
<path d="M0 0 C1.01790619 0.00215515 2.03581238 0.0043103 3.08456421 0.00653076 C17.69363523 0.05620146 32.02575853 0.30709809 46.375 3.3125 C47.34985352 3.51117676 48.32470703 3.70985352 49.32910156 3.91455078 C97.7109774 14.03517194 141.69928269 35.9516877 177.375 70.3125 C178.3640332 71.26068604 178.3640332 71.26068604 179.37304688 72.22802734 C188.86130305 81.37247479 197.6012044 90.66984009 205.375 101.3125 C206.23306152 102.46355017 207.09113451 103.61459177 207.94921875 104.765625 C213.98736829 112.95680614 219.34595521 121.47054105 224.375 130.3125 C224.73948242 130.94430176 225.10396484 131.57610352 225.47949219 132.22705078 C247.08534998 169.97532572 256.85198095 212.74189997 256.6875 255.9375 C256.68534485 256.95540619 256.6831897 257.97331238 256.68096924 259.02206421 C256.63129854 273.63113523 256.38040191 287.96325853 253.375 302.3125 C253.07698486 303.77478027 253.07698486 303.77478027 252.77294922 305.26660156 C242.65232806 353.6484774 220.7358123 397.63678269 186.375 433.3125 C185.74287598 433.97185547 185.11075195 434.63121094 184.45947266 435.31054688 C175.31502521 444.79880305 166.01765991 453.5387044 155.375 461.3125 C154.22394983 462.17056152 153.07290823 463.02863451 151.921875 463.88671875 C143.73224019 469.92427396 135.22961724 475.30707302 126.375 480.3125 C125.66778809 480.7146875 124.96057617 481.116875 124.23193359 481.53125 C101.09654164 494.5566741 75.92537591 503.30551461 49.9375 508.625 C49.21860596 508.77235596 48.49971191 508.91971191 47.7590332 509.0715332 C33.08339502 511.86090125 18.55831162 512.66142619 3.64770508 512.62817383 C0.70811513 512.6250221 -2.2304558 512.64854926 -5.16992188 512.67382812 C-18.54306192 512.71848737 -31.43916711 511.51301542 -44.625 509.3125 C-46.33055054 509.03031616 -46.33055054 509.03031616 -48.07055664 508.74243164 C-91.33802759 500.97044532 -132.38793216 480.98345309 -165.625 452.3125 C-166.37007813 451.67828125 -167.11515625 451.0440625 -167.8828125 450.390625 C-181.38779833 438.57948485 -194.05918743 425.82889772 -204.625 411.3125 C-205.48149066 410.16255169 -206.33826433 409.01281411 -207.1953125 407.86328125 C-213.23534209 399.67315742 -218.61867614 391.16870382 -223.625 382.3125 C-224.0271875 381.60528809 -224.429375 380.89807617 -224.84375 380.16943359 C-237.8691741 357.03404164 -246.61801461 331.86287591 -251.9375 305.875 C-252.08485596 305.15610596 -252.23221191 304.43721191 -252.3840332 303.6965332 C-255.35789088 288.05024391 -255.99800362 272.57681954 -255.9375 256.6875 C-255.93534485 255.66959381 -255.9331897 254.65168762 -255.93096924 253.60293579 C-255.88129854 238.99386477 -255.63040191 224.66174147 -252.625 210.3125 C-252.42632324 209.33764648 -252.22764648 208.36279297 -252.02294922 207.35839844 C-241.90232806 158.9765226 -219.9858123 114.98821731 -185.625 79.3125 C-184.99287598 78.65314453 -184.36075195 77.99378906 -183.70947266 77.31445312 C-174.56502521 67.82619695 -165.26765991 59.0862956 -154.625 51.3125 C-153.47394983 50.45443848 -152.32290823 49.59636549 -151.171875 48.73828125 C-142.98224019 42.70072604 -134.47961724 37.31792698 -125.625 32.3125 C-124.91778809 31.9103125 -124.21057617 31.508125 -123.48193359 31.09375 C-100.34654164 18.0683259 -75.17537591 9.31948539 -49.1875 4 C-48.46860596 3.85264404 -47.74971191 3.70528809 -47.0090332 3.5534668 C-31.36274391 0.57960912 -15.88931954 -0.06050362 0 0 Z " fill="#32BEA6" transform="translate(255.625,-0.3125)"/>
<path d="M0 0 C0.76024335 -0.00367669 1.52048671 -0.00735338 2.30376774 -0.01114148 C4.85966889 -0.02218273 7.41552937 -0.02602311 9.97145081 -0.02983093 C11.80148955 -0.03609591 13.63152703 -0.04274274 15.46156311 -0.04974365 C21.48511364 -0.07080568 27.50866446 -0.08115713 33.53224182 -0.09111023 C35.61046423 -0.09515885 37.68868651 -0.0992758 39.76690865 -0.10346031 C49.54437275 -0.12252712 59.3218293 -0.13674755 69.09930843 -0.14507228 C80.34983849 -0.15481068 91.60017001 -0.18103458 102.85063022 -0.22157317 C111.56430861 -0.25188099 120.27793064 -0.2665555 128.99166065 -0.26985329 C134.18576777 -0.27218973 139.37966321 -0.28096297 144.5737133 -0.30631447 C149.47641108 -0.32985379 154.37876181 -0.33372626 159.28150177 -0.32355309 C161.06466652 -0.32306361 162.84784985 -0.32920646 164.63096046 -0.34310913 C192.49271771 -0.54787647 217.37646842 6.61655469 237.81349182 26.33467102 C254.10638869 42.7875262 263.76253638 64.24376649 263.97364807 87.52217102 C263.71226713 113.26966242 254.0948957 135.1051526 236.47364807 153.70967102 C212.99750772 176.69807993 184.01598522 178.91643049 152.96929574 178.8560698 C148.61977547 178.85290899 144.27041248 178.8780823 139.92095947 178.90002441 C131.71568276 178.93722866 123.51057167 178.94959829 115.30521888 178.95264882 C105.9505849 178.95736553 96.59611422 178.99037187 87.24155295 179.02554667 C68.02726694 179.0971728 48.81305871 179.13394831 29.59864807 179.14717102 C30.90068176 180.43349426 30.90068176 180.43349426 32.22901917 181.74580383 C35.45073346 184.93129496 38.66580547 188.12341934 41.87892151 191.31758118 C43.27002309 192.6986305 44.66291514 194.07787877 46.05763245 195.45527649 C48.06303214 197.43639428 50.06188584 199.42391775 52.05958557 201.41279602 C52.6836026 202.02649048 53.30761963 202.64018494 53.95054626 203.2724762 C54.53099701 203.85277588 55.11144775 204.43307556 55.70948792 205.03096008 C56.22022858 205.53725952 56.73096924 206.04355896 57.25718689 206.56520081 C60.93082607 210.89748254 61.01811755 214.95662425 60.92286682 220.45185852 C60.47266651 224.19448763 59.05609899 226.33865568 56.59864807 229.14717102 C56.12427307 229.72467102 55.64989807 230.30217102 55.16114807 230.89717102 C50.98848368 234.23530253 46.81216695 234.60449724 41.59864807 234.14717102 C36.62251448 232.11666343 33.16411519 229.13800811 29.44142151 225.36225891 C28.5671048 224.4934182 28.5671048 224.4934182 27.67512512 223.60702515 C25.76196615 221.70193273 23.85982362 219.78625337 21.95802307 217.86982727 C20.62668618 216.53797141 19.29483006 215.2066344 17.96247864 213.87579346 C15.17726926 211.09049454 12.39728525 208.30011552 9.62110901 205.5058136 C6.06302893 201.92501414 2.49394684 198.35542817 -1.0788765 194.78934574 C-3.82788871 192.04367465 -6.57188955 189.29304038 -9.31430817 186.54078484 C-10.6286922 185.22255349 -11.94442515 183.90566569 -13.26152802 182.59015083 C-15.09990692 180.75214281 -16.93165143 178.90777175 -18.76170349 177.06147766 C-19.30613098 176.51952759 -19.85055847 175.97757751 -20.41148376 175.41920471 C-24.49861246 171.2740385 -26.67769289 168.24958246 -26.90135193 162.39717102 C-26.95291443 161.59795227 -27.00447693 160.79873352 -27.05760193 159.97529602 C-24.85889857 150.49993155 -14.39193774 142.84643323 -7.70603943 136.18623352 C-6.46837165 134.94721634 -5.23100071 133.70790258 -3.99391174 132.4683075 C-1.41339552 129.88485736 1.17066645 127.30502261 3.75733948 124.72773743 C7.07067095 121.42584743 10.37487742 118.11499391 13.67651558 114.8014164 C16.22422094 112.24648637 18.77666744 109.69633585 21.33057785 107.14760971 C22.55126059 105.9282593 23.77046445 104.7074265 24.98814774 103.48508072 C26.68701727 101.78113082 28.39216783 100.083725 30.09913635 98.38789368 C30.59897034 97.88401123 31.09880432 97.38012878 31.61378479 96.86097717 C35.73540574 92.78902179 38.65617059 90.86185549 44.47364807 90.83467102 C48.89560234 90.938717 51.88515842 91.58309483 55.59864807 94.14717102 C59.35425071 98.30878475 60.76678756 100.83549226 60.91114807 106.39717102 C60.96722229 107.7970929 60.96722229 107.7970929 61.02442932 109.22529602 C60.07919011 115.71189169 54.79336779 120.22911314 50.30177307 124.63935852 C49.70813965 125.23016205 49.11450623 125.82096558 48.50288391 126.42967224 C46.6228182 128.29862484 44.73588847 130.16046643 42.84864807 132.02217102 C41.56563439 133.29514345 40.28307752 134.56857647 39.00099182 135.84248352 C35.87213507 138.94939769 32.73710673 142.04995777 29.59864807 145.14717102 C49.54901003 145.2643052 69.49930158 145.35230589 89.44993687 145.40623188 C98.71471255 145.43194335 107.97927377 145.4669578 117.24391174 145.52436829 C125.3250136 145.57442057 133.40596003 145.60651324 141.4872126 145.61761349 C145.7607807 145.62409558 150.03390442 145.63918032 154.30732918 145.6758213 C158.34165223 145.71012718 162.37535404 145.72015551 166.40980911 145.71270943 C167.87903296 145.71406873 169.34828077 145.7237935 170.81737709 145.74319839 C187.69526379 145.95492413 202.40869761 141.03507749 214.91114807 129.33467102 C225.92748842 117.64248157 231.21951073 102.05214251 230.84083557 86.20576477 C230.2120219 72.85436958 224.33895155 58.90585606 215.01661682 49.24092102 C202.78655093 38.65075088 188.99310134 32.97614371 172.70436096 33.01586914 C171.53920881 33.01269557 171.53920881 33.01269557 170.35051823 33.00945789 C167.75743259 33.00348426 165.16439598 33.00445614 162.57130432 33.00532532 C160.7082562 33.00229216 158.84520883 32.99877027 156.98216248 32.99479675 C152.9749188 32.98692088 148.96768398 32.98176786 144.96043396 32.97850609 C138.62374659 32.97258777 132.28711514 32.95604078 125.95045471 32.93716431 C123.77990726 32.93082742 121.60935977 32.92450179 119.43881226 32.91818714 C118.35201487 32.91502133 117.26521748 32.91185552 116.14548683 32.90859377 C101.39648524 32.86652873 86.64751039 32.83352627 71.89845276 32.82124329 C61.94403841 32.81286819 51.98976323 32.79040138 42.03541851 32.75188762 C36.76917687 32.73211516 31.50314332 32.71972653 26.23686218 32.72472191 C21.28568595 32.72936161 16.33490472 32.71560002 11.38380814 32.68770981 C9.56737184 32.68078773 7.75089479 32.68068238 5.93445969 32.68791008 C3.45348064 32.69678494 0.97380813 32.68112816 -1.50706482 32.65942383 C-2.22477523 32.66786637 -2.94248564 32.6763089 -3.68194485 32.68500727 C-8.70209707 32.60386501 -11.52185407 31.27278121 -15.40135193 28.14717102 C-19.37704331 23.52677293 -20.65010166 19.14961008 -20.40135193 13.14717102 C-18.69375922 7.70421925 -14.98537394 4.34556819 -10.40135193 1.14717102 C-6.8678415 -0.03066579 -3.67660419 -0.00095066 0 0 Z " fill="#FDFEFE" transform="translate(137.40135192871094,158.8528289794922)"/>
</svg>
